<?xml version="1.0" encoding="UTF-8" standalone="no"?>
<!DOCTYPE svg PUBLIC "-//W3C//DTD SVG 1.1//EN"
 "http://www.w3.org/Graphics/SVG/1.1/DTD/svg11.dtd">
<!-- Generated by graphviz version 2.38.0 (20140413.2041)
 -->
<!-- Title: hi_inheritance_et_al.aa_inheritance.Person Pages: 1 -->
<svg width="266pt" height="259pt"
 viewBox="0.00 0.00 266.00 259.00" xmlns="http://www.w3.org/2000/svg" xmlns:xlink="http://www.w3.org/1999/xlink">
<g id="graph0" class="graph" transform="scale(1 1) rotate(0) translate(4 255)">
<title>hi_inheritance_et_al.aa_inheritance.Person</title>
<!-- Node1 -->
<g id="node1" class="node"><title>Node1</title>
<polygon fill="#bfbfbf" stroke="black" points="69,-149.5 69,-250.5 189,-250.5 189,-149.5 69,-149.5"/>
<text text-anchor="start" x="77" y="-238.5" font-family="Helvetica,sans-Serif" font-size="10.00">hi_inheritance_et_al.aa</text>
<text text-anchor="middle" x="129" y="-227.5" font-family="Helvetica,sans-Serif" font-size="10.00">_inheritance.Person</text>
<polyline fill="none" stroke="black" points="69,-220.5 189,-220.5 "/>
<text text-anchor="middle" x="129" y="-208.5" font-family="Helvetica,sans-Serif" font-size="10.00"> </text>
<polyline fill="none" stroke="black" points="69,-201.5 189,-201.5 "/>
<text text-anchor="start" x="77" y="-189.5" font-family="Helvetica,sans-Serif" font-size="10.00">+ getAge()</text>
<text text-anchor="start" x="77" y="-178.5" font-family="Helvetica,sans-Serif" font-size="10.00">+ Person()</text>
<text text-anchor="start" x="77" y="-167.5" font-family="Helvetica,sans-Serif" font-size="10.00">+ Person()</text>
<text text-anchor="start" x="77" y="-156.5" font-family="Helvetica,sans-Serif" font-size="10.00">+ annualUpdate()</text>
</g>
<!-- Node2 -->
<g id="node2" class="node"><title>Node2</title>
<g id="a_node2"><a xlink:href="../../d3/dc3/classhi__inheritance__et__al_1_1aa__inheritance_1_1_adult.html" target="_top" xlink:title="{hi_inheritance_et_al.aa\l_inheritance.Adult\n||+ getEmployer()\l+ setEmployer()\l~ aMethod()\l~ Adult()\l~ Adult()\l}">
<polygon fill="none" stroke="black" points="0,-0.5 0,-112.5 120,-112.5 120,-0.5 0,-0.5"/>
<text text-anchor="start" x="8" y="-100.5" font-family="Helvetica,sans-Serif" font-size="10.00">hi_inheritance_et_al.aa</text>
<text text-anchor="middle" x="60" y="-89.5" font-family="Helvetica,sans-Serif" font-size="10.00">_inheritance.Adult</text>
<polyline fill="none" stroke="black" points="0,-82.5 120,-82.5 "/>
<text text-anchor="middle" x="60" y="-70.5" font-family="Helvetica,sans-Serif" font-size="10.00"> </text>
<polyline fill="none" stroke="black" points="0,-63.5 120,-63.5 "/>
<text text-anchor="start" x="8" y="-51.5" font-family="Helvetica,sans-Serif" font-size="10.00">+ getEmployer()</text>
<text text-anchor="start" x="8" y="-40.5" font-family="Helvetica,sans-Serif" font-size="10.00">+ setEmployer()</text>
<text text-anchor="start" x="8" y="-29.5" font-family="Helvetica,sans-Serif" font-size="10.00">~ aMethod()</text>
<text text-anchor="start" x="8" y="-18.5" font-family="Helvetica,sans-Serif" font-size="10.00">~ Adult()</text>
<text text-anchor="start" x="8" y="-7.5" font-family="Helvetica,sans-Serif" font-size="10.00">~ Adult()</text>
</a>
</g>
</g>
<!-- Node1&#45;&gt;Node2 -->
<g id="edge1" class="edge"><title>Node1&#45;&gt;Node2</title>
<path fill="none" stroke="midnightblue" d="M100.162,-139.861C95.7773,-130.869 91.2673,-121.621 86.9258,-112.717"/>
<polygon fill="none" stroke="midnightblue" points="97.1442,-141.658 104.673,-149.112 103.436,-138.59 97.1442,-141.658"/>
</g>
<!-- Node3 -->
<g id="node3" class="node"><title>Node3</title>
<g id="a_node3"><a xlink:href="../../d8/d6b/classhi__inheritance__et__al_1_1aa__inheritance_1_1_child.html" target="_top" xlink:title="{hi_inheritance_et_al.aa\l_inheritance.Child\n||+ setSchool()\l+ getSchool()\l}">
<polygon fill="none" stroke="black" points="138,-17 138,-96 258,-96 258,-17 138,-17"/>
<text text-anchor="start" x="146" y="-84" font-family="Helvetica,sans-Serif" font-size="10.00">hi_inheritance_et_al.aa</text>
<text text-anchor="middle" x="198" y="-73" font-family="Helvetica,sans-Serif" font-size="10.00">_inheritance.Child</text>
<polyline fill="none" stroke="black" points="138,-66 258,-66 "/>
<text text-anchor="middle" x="198" y="-54" font-family="Helvetica,sans-Serif" font-size="10.00"> </text>
<polyline fill="none" stroke="black" points="138,-47 258,-47 "/>
<text text-anchor="start" x="146" y="-35" font-family="Helvetica,sans-Serif" font-size="10.00">+ setSchool()</text>
<text text-anchor="start" x="146" y="-24" font-family="Helvetica,sans-Serif" font-size="10.00">+ getSchool()</text>
</a>
</g>
</g>
<!-- Node1&#45;&gt;Node3 -->
<g id="edge2" class="edge"><title>Node1&#45;&gt;Node3</title>
<path fill="none" stroke="midnightblue" d="M157.756,-140.03C164.959,-125.257 172.507,-109.78 179.093,-96.2722"/>
<polygon fill="none" stroke="midnightblue" points="154.564,-138.59 153.327,-149.112 160.856,-141.658 154.564,-138.59"/>
</g>
</g>
</svg>
