<?xml version="1.0" encoding="UTF-8" standalone="no"?>
<!DOCTYPE svg PUBLIC "-//W3C//DTD SVG 1.1//EN"
 "http://www.w3.org/Graphics/SVG/1.1/DTD/svg11.dtd">
<!-- Generated by graphviz version 2.38.0 (20140413.2041)
 -->
<!-- Title: hi_inheritance_et_al.dd_composition.PersonI Pages: 1 -->
<svg width="310pt" height="215pt"
 viewBox="0.00 0.00 310.00 215.00" xmlns="http://www.w3.org/2000/svg" xmlns:xlink="http://www.w3.org/1999/xlink">
<g id="graph0" class="graph" transform="scale(1 1) rotate(0) translate(4 211)">
<title>hi_inheritance_et_al.dd_composition.PersonI</title>
<!-- Node1 -->
<g id="node1" class="node"><title>Node1</title>
<polygon fill="#bfbfbf" stroke="black" points="97.5,-138.5 97.5,-206.5 217.5,-206.5 217.5,-138.5 97.5,-138.5"/>
<text text-anchor="start" x="105.5" y="-194.5" font-family="Helvetica,sans-Serif" font-size="10.00">hi_inheritance_et_al.dd</text>
<text text-anchor="middle" x="157.5" y="-183.5" font-family="Helvetica,sans-Serif" font-size="10.00">_composition.PersonI</text>
<polyline fill="none" stroke="black" points="97.5,-176.5 217.5,-176.5 "/>
<text text-anchor="middle" x="157.5" y="-164.5" font-family="Helvetica,sans-Serif" font-size="10.00"> </text>
<polyline fill="none" stroke="black" points="97.5,-157.5 217.5,-157.5 "/>
<text text-anchor="start" x="105.5" y="-145.5" font-family="Helvetica,sans-Serif" font-size="10.00">+ getAge()</text>
</g>
<!-- Node2 -->
<g id="node2" class="node"><title>Node2</title>
<g id="a_node2"><a xlink:href="../../d0/d4a/classhi__inheritance__et__al_1_1dd__composition_1_1_driver_vehicle_unit.html" target="_top" xlink:title="{hi_inheritance_et_al.dd\l_composition.DriverVehicleUnit\n|~ personDelegate\l~ carDelegate\l|+ move()\l+ getAge()\l~ DriverVehicleUnit()\l}">
<polygon fill="none" stroke="black" points="0,-0.5 0,-101.5 155,-101.5 155,-0.5 0,-0.5"/>
<text text-anchor="start" x="8" y="-89.5" font-family="Helvetica,sans-Serif" font-size="10.00">hi_inheritance_et_al.dd</text>
<text text-anchor="middle" x="77.5" y="-78.5" font-family="Helvetica,sans-Serif" font-size="10.00">_composition.DriverVehicleUnit</text>
<polyline fill="none" stroke="black" points="0,-71.5 155,-71.5 "/>
<text text-anchor="start" x="8" y="-59.5" font-family="Helvetica,sans-Serif" font-size="10.00">~ personDelegate</text>
<text text-anchor="start" x="8" y="-48.5" font-family="Helvetica,sans-Serif" font-size="10.00">~ carDelegate</text>
<polyline fill="none" stroke="black" points="0,-41.5 155,-41.5 "/>
<text text-anchor="start" x="8" y="-29.5" font-family="Helvetica,sans-Serif" font-size="10.00">+ move()</text>
<text text-anchor="start" x="8" y="-18.5" font-family="Helvetica,sans-Serif" font-size="10.00">+ getAge()</text>
<text text-anchor="start" x="8" y="-7.5" font-family="Helvetica,sans-Serif" font-size="10.00">~ DriverVehicleUnit()</text>
</a>
</g>
</g>
<!-- Node1&#45;&gt;Node2 -->
<g id="edge1" class="edge"><title>Node1&#45;&gt;Node2</title>
<path fill="none" stroke="midnightblue" d="M129.54,-129.735C123.468,-120.665 116.989,-110.986 110.736,-101.646"/>
<polygon fill="none" stroke="midnightblue" points="126.744,-131.85 135.216,-138.213 132.561,-127.956 126.744,-131.85"/>
</g>
<!-- Node3 -->
<g id="node3" class="node"><title>Node3</title>
<g id="a_node3"><a xlink:href="../../d0/d20/classhi__inheritance__et__al_1_1dd__composition_1_1_person_impl.html" target="_top" xlink:title="{hi_inheritance_et_al.dd\l_composition.PersonImpl\n|~ age\l|+ getAge()\l~ PersonImpl()\l}">
<polygon fill="none" stroke="black" points="173,-11.5 173,-90.5 302,-90.5 302,-11.5 173,-11.5"/>
<text text-anchor="start" x="181" y="-78.5" font-family="Helvetica,sans-Serif" font-size="10.00">hi_inheritance_et_al.dd</text>
<text text-anchor="middle" x="237.5" y="-67.5" font-family="Helvetica,sans-Serif" font-size="10.00">_composition.PersonImpl</text>
<polyline fill="none" stroke="black" points="173,-60.5 302,-60.5 "/>
<text text-anchor="start" x="181" y="-48.5" font-family="Helvetica,sans-Serif" font-size="10.00">~ age</text>
<polyline fill="none" stroke="black" points="173,-41.5 302,-41.5 "/>
<text text-anchor="start" x="181" y="-29.5" font-family="Helvetica,sans-Serif" font-size="10.00">+ getAge()</text>
<text text-anchor="start" x="181" y="-18.5" font-family="Helvetica,sans-Serif" font-size="10.00">~ PersonImpl()</text>
</a>
</g>
</g>
<!-- Node1&#45;&gt;Node3 -->
<g id="edge2" class="edge"><title>Node1&#45;&gt;Node3</title>
<path fill="none" stroke="midnightblue" d="M185.52,-129.646C194.018,-116.952 203.311,-103.07 211.659,-90.5997"/>
<polygon fill="none" stroke="midnightblue" points="182.439,-127.956 179.784,-138.213 188.256,-131.85 182.439,-127.956"/>
</g>
</g>
</svg>
