<?xml version="1.0" encoding="UTF-8" standalone="no"?>
<!DOCTYPE svg PUBLIC "-//W3C//DTD SVG 1.1//EN"
 "http://www.w3.org/Graphics/SVG/1.1/DTD/svg11.dtd">
<!-- Generated by graphviz version 2.38.0 (20140413.2041)
 -->
<!-- Title: cc_klassen.ll_interfaceDemo.Adult Pages: 1 -->
<svg width="320pt" height="215pt"
 viewBox="0.00 0.00 320.00 215.00" xmlns="http://www.w3.org/2000/svg" xmlns:xlink="http://www.w3.org/1999/xlink">
<g id="graph0" class="graph" transform="scale(1 1) rotate(0) translate(4 211)">
<title>cc_klassen.ll_interfaceDemo.Adult</title>
<!-- Node1 -->
<g id="node1" class="node"><title>Node1</title>
<polygon fill="#bfbfbf" stroke="black" points="82,-0.5 82,-90.5 229,-90.5 229,-0.5 82,-0.5"/>
<text text-anchor="start" x="90" y="-78.5" font-family="Helvetica,sans-Serif" font-size="10.00">cc_klassen.ll_interfaceDemo.</text>
<text text-anchor="middle" x="155.5" y="-67.5" font-family="Helvetica,sans-Serif" font-size="10.00">Adult</text>
<polyline fill="none" stroke="black" points="82,-60.5 229,-60.5 "/>
<text text-anchor="middle" x="155.5" y="-48.5" font-family="Helvetica,sans-Serif" font-size="10.00"> </text>
<polyline fill="none" stroke="black" points="82,-41.5 229,-41.5 "/>
<text text-anchor="start" x="90" y="-29.5" font-family="Helvetica,sans-Serif" font-size="10.00">+ getAge()</text>
<text text-anchor="start" x="90" y="-18.5" font-family="Helvetica,sans-Serif" font-size="10.00">+ getEmployer()</text>
<text text-anchor="start" x="90" y="-7.5" font-family="Helvetica,sans-Serif" font-size="10.00">+ setEmployer()</text>
</g>
<!-- Node2 -->
<g id="node2" class="node"><title>Node2</title>
<g id="a_node2"><a xlink:href="../../d2/d6d/interfacecc__klassen_1_1ll__interface_demo_1_1_person_i.html" target="_top" xlink:title="{cc_klassen.ll_interfaceDemo.\lPersonI\n|+ DRIVING_AGE\l|+ getAge()\l}">
<polygon fill="none" stroke="black" points="0,-133 0,-201 147,-201 147,-133 0,-133"/>
<text text-anchor="start" x="8" y="-189" font-family="Helvetica,sans-Serif" font-size="10.00">cc_klassen.ll_interfaceDemo.</text>
<text text-anchor="middle" x="73.5" y="-178" font-family="Helvetica,sans-Serif" font-size="10.00">PersonI</text>
<polyline fill="none" stroke="black" points="0,-171 147,-171 "/>
<text text-anchor="start" x="8" y="-159" font-family="Helvetica,sans-Serif" font-size="10.00">+ DRIVING_AGE</text>
<polyline fill="none" stroke="black" points="0,-152 147,-152 "/>
<text text-anchor="start" x="8" y="-140" font-family="Helvetica,sans-Serif" font-size="10.00">+ getAge()</text>
</a>
</g>
</g>
<!-- Node2&#45;&gt;Node1 -->
<g id="edge1" class="edge"><title>Node2&#45;&gt;Node1</title>
<path fill="none" stroke="midnightblue" d="M102.15,-124.248C109.577,-113.424 117.602,-101.73 125.116,-90.7798"/>
<polygon fill="none" stroke="midnightblue" points="99.1137,-122.487 96.3416,-132.713 104.885,-126.447 99.1137,-122.487"/>
</g>
<!-- Node3 -->
<g id="node3" class="node"><title>Node3</title>
<g id="a_node3"><a xlink:href="../../de/d9e/interfacecc__klassen_1_1ll__interface_demo_1_1_employable.html" target="_top" xlink:title="{cc_klassen.ll_interfaceDemo.\lEmployable\n||+ getEmployer()\l+ setEmployer()\l}">
<polygon fill="none" stroke="black" points="165,-127.5 165,-206.5 312,-206.5 312,-127.5 165,-127.5"/>
<text text-anchor="start" x="173" y="-194.5" font-family="Helvetica,sans-Serif" font-size="10.00">cc_klassen.ll_interfaceDemo.</text>
<text text-anchor="middle" x="238.5" y="-183.5" font-family="Helvetica,sans-Serif" font-size="10.00">Employable</text>
<polyline fill="none" stroke="black" points="165,-176.5 312,-176.5 "/>
<text text-anchor="middle" x="238.5" y="-164.5" font-family="Helvetica,sans-Serif" font-size="10.00"> </text>
<polyline fill="none" stroke="black" points="165,-157.5 312,-157.5 "/>
<text text-anchor="start" x="173" y="-145.5" font-family="Helvetica,sans-Serif" font-size="10.00">+ getEmployer()</text>
<text text-anchor="start" x="173" y="-134.5" font-family="Helvetica,sans-Serif" font-size="10.00">+ setEmployer()</text>
</a>
</g>
</g>
<!-- Node3&#45;&gt;Node1 -->
<g id="edge2" class="edge"><title>Node3&#45;&gt;Node1</title>
<path fill="none" stroke="midnightblue" d="M205.775,-118.884C199.375,-109.669 192.683,-100.034 186.346,-90.9111"/>
<polygon fill="none" stroke="midnightblue" points="202.973,-120.985 211.552,-127.202 208.722,-116.992 202.973,-120.985"/>
</g>
</g>
</svg>
