<?xml version="1.0" encoding="UTF-8" standalone="no"?>
<!DOCTYPE svg PUBLIC "-//W3C//DTD SVG 1.1//EN"
 "http://www.w3.org/Graphics/SVG/1.1/DTD/svg11.dtd">
<!-- Generated by graphviz version 2.38.0 (20140413.2041)
 -->
<!-- Title: cc_klassen.ll_interfaceDemo.PersonI Pages: 1 -->
<svg width="815pt" height="331pt"
 viewBox="0.00 0.00 815.00 331.00" xmlns="http://www.w3.org/2000/svg" xmlns:xlink="http://www.w3.org/1999/xlink">
<g id="graph0" class="graph" transform="scale(1 1) rotate(0) translate(4 327)">
<title>cc_klassen.ll_interfaceDemo.PersonI</title>
<!-- Node1 -->
<g id="node1" class="node"><title>Node1</title>
<polygon fill="#bfbfbf" stroke="black" points="330,-254.5 330,-322.5 477,-322.5 477,-254.5 330,-254.5"/>
<text text-anchor="start" x="338" y="-310.5" font-family="Helvetica,sans-Serif" font-size="10.00">cc_klassen.ll_interfaceDemo.</text>
<text text-anchor="middle" x="403.5" y="-299.5" font-family="Helvetica,sans-Serif" font-size="10.00">PersonI</text>
<polyline fill="none" stroke="black" points="330,-292.5 477,-292.5 "/>
<text text-anchor="start" x="338" y="-280.5" font-family="Helvetica,sans-Serif" font-size="10.00">+ DRIVING_AGE</text>
<polyline fill="none" stroke="black" points="330,-273.5 477,-273.5 "/>
<text text-anchor="start" x="338" y="-261.5" font-family="Helvetica,sans-Serif" font-size="10.00">+ getAge()</text>
</g>
<!-- Node2 -->
<g id="node2" class="node"><title>Node2</title>
<g id="a_node2"><a xlink:href="../../d9/d49/classcc__klassen_1_1ll__interface_demo_1_1_adult.html" target="_top" xlink:title="{cc_klassen.ll_interfaceDemo.\lAdult\n||+ getAge()\l+ getEmployer()\l+ setEmployer()\l}">
<polygon fill="none" stroke="black" points="0,-127.5 0,-217.5 147,-217.5 147,-127.5 0,-127.5"/>
<text text-anchor="start" x="8" y="-205.5" font-family="Helvetica,sans-Serif" font-size="10.00">cc_klassen.ll_interfaceDemo.</text>
<text text-anchor="middle" x="73.5" y="-194.5" font-family="Helvetica,sans-Serif" font-size="10.00">Adult</text>
<polyline fill="none" stroke="black" points="0,-187.5 147,-187.5 "/>
<text text-anchor="middle" x="73.5" y="-175.5" font-family="Helvetica,sans-Serif" font-size="10.00"> </text>
<polyline fill="none" stroke="black" points="0,-168.5 147,-168.5 "/>
<text text-anchor="start" x="8" y="-156.5" font-family="Helvetica,sans-Serif" font-size="10.00">+ getAge()</text>
<text text-anchor="start" x="8" y="-145.5" font-family="Helvetica,sans-Serif" font-size="10.00">+ getEmployer()</text>
<text text-anchor="start" x="8" y="-134.5" font-family="Helvetica,sans-Serif" font-size="10.00">+ setEmployer()</text>
</a>
</g>
</g>
<!-- Node1&#45;&gt;Node2 -->
<g id="edge1" class="edge"><title>Node1&#45;&gt;Node2</title>
<path fill="none" stroke="midnightblue" d="M320.122,-268.854C271.524,-256.805 209.551,-239.387 156.5,-218 153.467,-216.777 150.402,-215.474 147.327,-214.11"/>
<polygon fill="none" stroke="midnightblue" points="319.423,-272.286 329.969,-271.267 321.09,-265.487 319.423,-272.286"/>
</g>
<!-- Node3 -->
<g id="node3" class="node"><title>Node3</title>
<g id="a_node3"><a xlink:href="../../d2/d66/interfacecc__klassen_1_1ll__interface_demo_1_1_mobile_person_i.html" target="_top" xlink:title="{cc_klassen.ll_interfaceDemo.\lMobilePersonI\n||}">
<polygon fill="none" stroke="black" points="165,-138.5 165,-206.5 312,-206.5 312,-138.5 165,-138.5"/>
<text text-anchor="start" x="173" y="-194.5" font-family="Helvetica,sans-Serif" font-size="10.00">cc_klassen.ll_interfaceDemo.</text>
<text text-anchor="middle" x="238.5" y="-183.5" font-family="Helvetica,sans-Serif" font-size="10.00">MobilePersonI</text>
<polyline fill="none" stroke="black" points="165,-176.5 312,-176.5 "/>
<text text-anchor="middle" x="238.5" y="-164.5" font-family="Helvetica,sans-Serif" font-size="10.00"> </text>
<polyline fill="none" stroke="black" points="165,-157.5 312,-157.5 "/>
<text text-anchor="middle" x="238.5" y="-145.5" font-family="Helvetica,sans-Serif" font-size="10.00"> </text>
</a>
</g>
</g>
<!-- Node1&#45;&gt;Node3 -->
<g id="edge2" class="edge"><title>Node1&#45;&gt;Node3</title>
<path fill="none" stroke="midnightblue" d="M347.033,-248.487C327.32,-234.866 305.396,-219.719 286.443,-206.624"/>
<polygon fill="none" stroke="midnightblue" points="345.115,-251.415 355.332,-254.22 349.094,-245.656 345.115,-251.415"/>
</g>
<!-- Node5 -->
<g id="node5" class="node"><title>Node5</title>
<g id="a_node5"><a xlink:href="../../d6/d8d/classcc__klassen_1_1ll__interface_demo_1_1_person_impl2.html" target="_top" xlink:title="{cc_klassen.ll_interfaceDemo.\lPersonImpl2\n||+ PersonImpl2()\l+ getAge()\l+ move()\l}">
<polygon fill="none" stroke="black" points="330,-127.5 330,-217.5 477,-217.5 477,-127.5 330,-127.5"/>
<text text-anchor="start" x="338" y="-205.5" font-family="Helvetica,sans-Serif" font-size="10.00">cc_klassen.ll_interfaceDemo.</text>
<text text-anchor="middle" x="403.5" y="-194.5" font-family="Helvetica,sans-Serif" font-size="10.00">PersonImpl2</text>
<polyline fill="none" stroke="black" points="330,-187.5 477,-187.5 "/>
<text text-anchor="middle" x="403.5" y="-175.5" font-family="Helvetica,sans-Serif" font-size="10.00"> </text>
<polyline fill="none" stroke="black" points="330,-168.5 477,-168.5 "/>
<text text-anchor="start" x="338" y="-156.5" font-family="Helvetica,sans-Serif" font-size="10.00">+ PersonImpl2()</text>
<text text-anchor="start" x="338" y="-145.5" font-family="Helvetica,sans-Serif" font-size="10.00">+ getAge()</text>
<text text-anchor="start" x="338" y="-134.5" font-family="Helvetica,sans-Serif" font-size="10.00">+ move()</text>
</a>
</g>
</g>
<!-- Node1&#45;&gt;Node5 -->
<g id="edge4" class="edge"><title>Node1&#45;&gt;Node5</title>
<path fill="none" stroke="midnightblue" d="M403.5,-243.972C403.5,-235.346 403.5,-226.284 403.5,-217.638"/>
<polygon fill="none" stroke="midnightblue" points="400,-244.22 403.5,-254.22 407,-244.22 400,-244.22"/>
</g>
<!-- Node6 -->
<g id="node6" class="node"><title>Node6</title>
<g id="a_node6"><a xlink:href="../../d4/d0f/classcc__klassen_1_1ll__interface_demo_1_1_person_impl3.html" target="_top" xlink:title="{cc_klassen.ll_interfaceDemo.\lPersonImpl3\n||+ getAge()\l}">
<polygon fill="none" stroke="black" points="495,-138.5 495,-206.5 642,-206.5 642,-138.5 495,-138.5"/>
<text text-anchor="start" x="503" y="-194.5" font-family="Helvetica,sans-Serif" font-size="10.00">cc_klassen.ll_interfaceDemo.</text>
<text text-anchor="middle" x="568.5" y="-183.5" font-family="Helvetica,sans-Serif" font-size="10.00">PersonImpl3</text>
<polyline fill="none" stroke="black" points="495,-176.5 642,-176.5 "/>
<text text-anchor="middle" x="568.5" y="-164.5" font-family="Helvetica,sans-Serif" font-size="10.00"> </text>
<polyline fill="none" stroke="black" points="495,-157.5 642,-157.5 "/>
<text text-anchor="start" x="503" y="-145.5" font-family="Helvetica,sans-Serif" font-size="10.00">+ getAge()</text>
</a>
</g>
</g>
<!-- Node1&#45;&gt;Node6 -->
<g id="edge5" class="edge"><title>Node1&#45;&gt;Node6</title>
<path fill="none" stroke="midnightblue" d="M459.967,-248.487C479.68,-234.866 501.604,-219.719 520.557,-206.624"/>
<polygon fill="none" stroke="midnightblue" points="457.906,-245.656 451.668,-254.22 461.885,-251.415 457.906,-245.656"/>
</g>
<!-- Node7 -->
<g id="node7" class="node"><title>Node7</title>
<g id="a_node7"><a xlink:href="../../d7/d12/classcc__klassen_1_1ll__interface_demo_1_1_person_impl4.html" target="_top" xlink:title="{cc_klassen.ll_interfaceDemo.\lPersonImpl4\n||+ getAge()\l}">
<polygon fill="none" stroke="black" points="660,-138.5 660,-206.5 807,-206.5 807,-138.5 660,-138.5"/>
<text text-anchor="start" x="668" y="-194.5" font-family="Helvetica,sans-Serif" font-size="10.00">cc_klassen.ll_interfaceDemo.</text>
<text text-anchor="middle" x="733.5" y="-183.5" font-family="Helvetica,sans-Serif" font-size="10.00">PersonImpl4</text>
<polyline fill="none" stroke="black" points="660,-176.5 807,-176.5 "/>
<text text-anchor="middle" x="733.5" y="-164.5" font-family="Helvetica,sans-Serif" font-size="10.00"> </text>
<polyline fill="none" stroke="black" points="660,-157.5 807,-157.5 "/>
<text text-anchor="start" x="668" y="-145.5" font-family="Helvetica,sans-Serif" font-size="10.00">+ getAge()</text>
</a>
</g>
</g>
<!-- Node1&#45;&gt;Node7 -->
<g id="edge6" class="edge"><title>Node1&#45;&gt;Node7</title>
<path fill="none" stroke="midnightblue" d="M486.993,-269.059C535.842,-257.055 598.196,-239.614 651.5,-218 659.756,-214.653 668.249,-210.689 676.497,-206.53"/>
<polygon fill="none" stroke="midnightblue" points="485.988,-265.701 477.096,-271.462 487.64,-272.503 485.988,-265.701"/>
</g>
<!-- Node4 -->
<g id="node4" class="node"><title>Node4</title>
<g id="a_node4"><a xlink:href="../../d1/d1c/classcc__klassen_1_1ll__interface_demo_1_1_person_impl1.html" target="_top" xlink:title="{cc_klassen.ll_interfaceDemo.\lPersonImpl1\n||+ getAge()\l+ move()\l~ PersonImpl1()\l}">
<polygon fill="none" stroke="black" points="165,-0.5 165,-90.5 312,-90.5 312,-0.5 165,-0.5"/>
<text text-anchor="start" x="173" y="-78.5" font-family="Helvetica,sans-Serif" font-size="10.00">cc_klassen.ll_interfaceDemo.</text>
<text text-anchor="middle" x="238.5" y="-67.5" font-family="Helvetica,sans-Serif" font-size="10.00">PersonImpl1</text>
<polyline fill="none" stroke="black" points="165,-60.5 312,-60.5 "/>
<text text-anchor="middle" x="238.5" y="-48.5" font-family="Helvetica,sans-Serif" font-size="10.00"> </text>
<polyline fill="none" stroke="black" points="165,-41.5 312,-41.5 "/>
<text text-anchor="start" x="173" y="-29.5" font-family="Helvetica,sans-Serif" font-size="10.00">+ getAge()</text>
<text text-anchor="start" x="173" y="-18.5" font-family="Helvetica,sans-Serif" font-size="10.00">+ move()</text>
<text text-anchor="start" x="173" y="-7.5" font-family="Helvetica,sans-Serif" font-size="10.00">~ PersonImpl1()</text>
</a>
</g>
</g>
<!-- Node3&#45;&gt;Node4 -->
<g id="edge3" class="edge"><title>Node3&#45;&gt;Node4</title>
<path fill="none" stroke="midnightblue" d="M238.5,-128.026C238.5,-115.934 238.5,-102.791 238.5,-90.6596"/>
<polygon fill="none" stroke="midnightblue" points="235,-128.33 238.5,-138.33 242,-128.331 235,-128.33"/>
</g>
</g>
</svg>
