<?xml version="1.0" encoding="UTF-8" standalone="no"?>
<!DOCTYPE svg PUBLIC "-//W3C//DTD SVG 1.1//EN"
 "http://www.w3.org/Graphics/SVG/1.1/DTD/svg11.dtd">
<!-- Generated by graphviz version 2.38.0 (20140413.2041)
 -->
<!-- Title: ff_collections.bb_ListWithPolymorphismAndCastAndInterface.Dog Pages: 1 -->
<svg width="382pt" height="215pt"
 viewBox="0.00 0.00 382.00 215.00" xmlns="http://www.w3.org/2000/svg" xmlns:xlink="http://www.w3.org/1999/xlink">
<g id="graph0" class="graph" transform="scale(1 1) rotate(0) translate(4 211)">
<title>ff_collections.bb_ListWithPolymorphismAndCastAndInterface.Dog</title>
<!-- Node1 -->
<g id="node1" class="node"><title>Node1</title>
<polygon fill="#bfbfbf" stroke="black" points="89,-0.5 89,-90.5 285,-90.5 285,-0.5 89,-0.5"/>
<text text-anchor="start" x="97" y="-78.5" font-family="Helvetica,sans-Serif" font-size="10.00">ff_collections.bb_ListWith</text>
<text text-anchor="middle" x="187" y="-67.5" font-family="Helvetica,sans-Serif" font-size="10.00">PolymorphismAndCastAndInterface.Dog</text>
<polyline fill="none" stroke="black" points="89,-60.5 285,-60.5 "/>
<text text-anchor="middle" x="187" y="-48.5" font-family="Helvetica,sans-Serif" font-size="10.00"> </text>
<polyline fill="none" stroke="black" points="89,-41.5 285,-41.5 "/>
<text text-anchor="start" x="97" y="-29.5" font-family="Helvetica,sans-Serif" font-size="10.00">+ getId()</text>
<text text-anchor="start" x="97" y="-18.5" font-family="Helvetica,sans-Serif" font-size="10.00">+ Dog()</text>
<text text-anchor="start" x="97" y="-7.5" font-family="Helvetica,sans-Serif" font-size="10.00">+ howl()</text>
</g>
<!-- Node2 -->
<g id="node2" class="node"><title>Node2</title>
<g id="a_node2"><a xlink:href="../../d0/df8/interfaceff__collections_1_1bb___list_with_polymorphism_and_cast_and_interface_1_1_agent_i.html" target="_top" xlink:title="{ff_collections.bb_ListWith\lPolymorphismAndCastAndInterface.\lAgentI\n||+ getId()\l}">
<polygon fill="none" stroke="black" points="0,-127.5 0,-206.5 178,-206.5 178,-127.5 0,-127.5"/>
<text text-anchor="start" x="8" y="-194.5" font-family="Helvetica,sans-Serif" font-size="10.00">ff_collections.bb_ListWith</text>
<text text-anchor="start" x="8" y="-183.5" font-family="Helvetica,sans-Serif" font-size="10.00">PolymorphismAndCastAndInterface.</text>
<text text-anchor="middle" x="89" y="-172.5" font-family="Helvetica,sans-Serif" font-size="10.00">AgentI</text>
<polyline fill="none" stroke="black" points="0,-165.5 178,-165.5 "/>
<text text-anchor="middle" x="89" y="-153.5" font-family="Helvetica,sans-Serif" font-size="10.00"> </text>
<polyline fill="none" stroke="black" points="0,-146.5 178,-146.5 "/>
<text text-anchor="start" x="8" y="-134.5" font-family="Helvetica,sans-Serif" font-size="10.00">+ getId()</text>
</a>
</g>
</g>
<!-- Node2&#45;&gt;Node1 -->
<g id="edge1" class="edge"><title>Node2&#45;&gt;Node1</title>
<path fill="none" stroke="midnightblue" d="M127.177,-119.448C134.873,-110.063 142.945,-100.221 150.579,-90.9111"/>
<polygon fill="none" stroke="midnightblue" points="124.453,-117.25 120.818,-127.202 129.865,-121.689 124.453,-117.25"/>
</g>
<!-- Node3 -->
<g id="node3" class="node"><title>Node3</title>
<g id="a_node3"><a xlink:href="../../d6/da7/interfaceff__collections_1_1bb___list_with_polymorphism_and_cast_and_interface_1_1_can_howl_i.html" target="_top" xlink:title="{ff_collections.bb_ListWith\lPolymorphismAndCastAndInterface.\lCanHowlI\n||+ howl()\l}">
<polygon fill="none" stroke="black" points="196,-127.5 196,-206.5 374,-206.5 374,-127.5 196,-127.5"/>
<text text-anchor="start" x="204" y="-194.5" font-family="Helvetica,sans-Serif" font-size="10.00">ff_collections.bb_ListWith</text>
<text text-anchor="start" x="204" y="-183.5" font-family="Helvetica,sans-Serif" font-size="10.00">PolymorphismAndCastAndInterface.</text>
<text text-anchor="middle" x="285" y="-172.5" font-family="Helvetica,sans-Serif" font-size="10.00">CanHowlI</text>
<polyline fill="none" stroke="black" points="196,-165.5 374,-165.5 "/>
<text text-anchor="middle" x="285" y="-153.5" font-family="Helvetica,sans-Serif" font-size="10.00"> </text>
<polyline fill="none" stroke="black" points="196,-146.5 374,-146.5 "/>
<text text-anchor="start" x="204" y="-134.5" font-family="Helvetica,sans-Serif" font-size="10.00">+ howl()</text>
</a>
</g>
</g>
<!-- Node3&#45;&gt;Node1 -->
<g id="edge2" class="edge"><title>Node3&#45;&gt;Node1</title>
<path fill="none" stroke="midnightblue" d="M246.823,-119.448C239.127,-110.063 231.055,-100.221 223.421,-90.9111"/>
<polygon fill="none" stroke="midnightblue" points="244.135,-121.689 253.182,-127.202 249.547,-117.25 244.135,-121.689"/>
</g>
</g>
</svg>
