<?xml version="1.0" encoding="UTF-8" standalone="no"?>
<!DOCTYPE svg PUBLIC "-//W3C//DTD SVG 1.1//EN"
 "http://www.w3.org/Graphics/SVG/1.1/DTD/svg11.dtd">
<!-- Generated by graphviz version 2.38.0 (20140413.2041)
 -->
<!-- Title: cc_klassen.ll_interfaceDemo.PersonImpl2 Pages: 1 -->
<svg width="320pt" height="204pt"
 viewBox="0.00 0.00 320.00 204.00" xmlns="http://www.w3.org/2000/svg" xmlns:xlink="http://www.w3.org/1999/xlink">
<g id="graph0" class="graph" transform="scale(1 1) rotate(0) translate(4 200)">
<title>cc_klassen.ll_interfaceDemo.PersonImpl2</title>
<!-- Node1 -->
<g id="node1" class="node"><title>Node1</title>
<polygon fill="#bfbfbf" stroke="black" points="82,-0.5 82,-90.5 229,-90.5 229,-0.5 82,-0.5"/>
<text text-anchor="start" x="90" y="-78.5" font-family="Helvetica,sans-Serif" font-size="10.00">cc_klassen.ll_interfaceDemo.</text>
<text text-anchor="middle" x="155.5" y="-67.5" font-family="Helvetica,sans-Serif" font-size="10.00">PersonImpl2</text>
<polyline fill="none" stroke="black" points="82,-60.5 229,-60.5 "/>
<text text-anchor="middle" x="155.5" y="-48.5" font-family="Helvetica,sans-Serif" font-size="10.00"> </text>
<polyline fill="none" stroke="black" points="82,-41.5 229,-41.5 "/>
<text text-anchor="start" x="90" y="-29.5" font-family="Helvetica,sans-Serif" font-size="10.00">+ PersonImpl2()</text>
<text text-anchor="start" x="90" y="-18.5" font-family="Helvetica,sans-Serif" font-size="10.00">+ getAge()</text>
<text text-anchor="start" x="90" y="-7.5" font-family="Helvetica,sans-Serif" font-size="10.00">+ move()</text>
</g>
<!-- Node2 -->
<g id="node2" class="node"><title>Node2</title>
<g id="a_node2"><a xlink:href="../../d2/d6d/interfacecc__klassen_1_1ll__interface_demo_1_1_person_i.html" target="_top" xlink:title="{cc_klassen.ll_interfaceDemo.\lPersonI\n|+ DRIVING_AGE\l|+ getAge()\l}">
<polygon fill="none" stroke="black" points="0,-127.5 0,-195.5 147,-195.5 147,-127.5 0,-127.5"/>
<text text-anchor="start" x="8" y="-183.5" font-family="Helvetica,sans-Serif" font-size="10.00">cc_klassen.ll_interfaceDemo.</text>
<text text-anchor="middle" x="73.5" y="-172.5" font-family="Helvetica,sans-Serif" font-size="10.00">PersonI</text>
<polyline fill="none" stroke="black" points="0,-165.5 147,-165.5 "/>
<text text-anchor="start" x="8" y="-153.5" font-family="Helvetica,sans-Serif" font-size="10.00">+ DRIVING_AGE</text>
<polyline fill="none" stroke="black" points="0,-146.5 147,-146.5 "/>
<text text-anchor="start" x="8" y="-134.5" font-family="Helvetica,sans-Serif" font-size="10.00">+ getAge()</text>
</a>
</g>
</g>
<!-- Node2&#45;&gt;Node1 -->
<g id="edge1" class="edge"><title>Node2&#45;&gt;Node1</title>
<path fill="none" stroke="midnightblue" d="M103.383,-118.955C110.009,-109.743 117.054,-99.9489 123.752,-90.6378"/>
<polygon fill="none" stroke="midnightblue" points="100.436,-117.058 97.4382,-127.22 106.119,-121.146 100.436,-117.058"/>
</g>
<!-- Node3 -->
<g id="node3" class="node"><title>Node3</title>
<g id="a_node3"><a xlink:href="../../dc/d4d/interfacecc__klassen_1_1ll__interface_demo_1_1_mobile_i.html" target="_top" xlink:title="{cc_klassen.ll_interfaceDemo.\lMobileI\n||+ move()\l}">
<polygon fill="none" stroke="black" points="165,-127.5 165,-195.5 312,-195.5 312,-127.5 165,-127.5"/>
<text text-anchor="start" x="173" y="-183.5" font-family="Helvetica,sans-Serif" font-size="10.00">cc_klassen.ll_interfaceDemo.</text>
<text text-anchor="middle" x="238.5" y="-172.5" font-family="Helvetica,sans-Serif" font-size="10.00">MobileI</text>
<polyline fill="none" stroke="black" points="165,-165.5 312,-165.5 "/>
<text text-anchor="middle" x="238.5" y="-153.5" font-family="Helvetica,sans-Serif" font-size="10.00"> </text>
<polyline fill="none" stroke="black" points="165,-146.5 312,-146.5 "/>
<text text-anchor="start" x="173" y="-134.5" font-family="Helvetica,sans-Serif" font-size="10.00">+ move()</text>
</a>
</g>
</g>
<!-- Node3&#45;&gt;Node1 -->
<g id="edge2" class="edge"><title>Node3&#45;&gt;Node1</title>
<path fill="none" stroke="midnightblue" d="M208.252,-118.955C201.545,-109.743 194.415,-99.9489 187.635,-90.6378"/>
<polygon fill="none" stroke="midnightblue" points="205.554,-121.196 214.27,-127.22 211.213,-117.076 205.554,-121.196"/>
</g>
</g>
</svg>
