<?xml version="1.0" encoding="UTF-8" standalone="no"?>
<!DOCTYPE svg PUBLIC "-//W3C//DTD SVG 1.1//EN"
 "http://www.w3.org/Graphics/SVG/1.1/DTD/svg11.dtd">
<!-- Generated by graphviz version 2.38.0 (20140413.2041)
 -->
<!-- Title: ll_gui.xx_OddShape.OddPanel Pages: 1 -->
<svg width="161pt" height="270pt"
 viewBox="0.00 0.00 161.00 270.00" xmlns="http://www.w3.org/2000/svg" xmlns:xlink="http://www.w3.org/1999/xlink">
<g id="graph0" class="graph" transform="scale(1 1) rotate(0) translate(4 266)">
<title>ll_gui.xx_OddShape.OddPanel</title>
<!-- Node1 -->
<g id="node1" class="node"><title>Node1</title>
<polygon fill="#bfbfbf" stroke="black" points="0,-0.5 0,-167.5 153,-167.5 153,-0.5 0,-0.5"/>
<text text-anchor="middle" x="76.5" y="-155.5" font-family="Helvetica,sans-Serif" font-size="10.00">ll_gui.xx_OddShape.OddPanel</text>
<polyline fill="none" stroke="black" points="0,-148.5 153,-148.5 "/>
<text text-anchor="start" x="8" y="-136.5" font-family="Helvetica,sans-Serif" font-size="10.00">~ x</text>
<text text-anchor="start" x="8" y="-125.5" font-family="Helvetica,sans-Serif" font-size="10.00">~ y</text>
<text text-anchor="start" x="8" y="-114.5" font-family="Helvetica,sans-Serif" font-size="10.00">~ x1</text>
<text text-anchor="start" x="8" y="-103.5" font-family="Helvetica,sans-Serif" font-size="10.00">~ y1</text>
<text text-anchor="start" x="8" y="-92.5" font-family="Helvetica,sans-Serif" font-size="10.00">~ x2</text>
<text text-anchor="start" x="8" y="-81.5" font-family="Helvetica,sans-Serif" font-size="10.00">~ y2</text>
<text text-anchor="start" x="8" y="-70.5" font-family="Helvetica,sans-Serif" font-size="10.00">~ oddShape</text>
<text text-anchor="start" x="8" y="-59.5" font-family="Helvetica,sans-Serif" font-size="10.00">~ firstTime</text>
<text text-anchor="start" x="8" y="-48.5" font-family="Helvetica,sans-Serif" font-size="10.00">~ area</text>
<polyline fill="none" stroke="black" points="0,-41.5 153,-41.5 "/>
<text text-anchor="start" x="8" y="-29.5" font-family="Helvetica,sans-Serif" font-size="10.00">+ OddPanel()</text>
<text text-anchor="start" x="8" y="-18.5" font-family="Helvetica,sans-Serif" font-size="10.00">+ createPath()</text>
<text text-anchor="start" x="8" y="-7.5" font-family="Helvetica,sans-Serif" font-size="10.00">+ paintComponent()</text>
</g>
<!-- Node2 -->
<g id="node2" class="node"><title>Node2</title>
<polygon fill="none" stroke="#bfbfbf" points="53,-204.5 53,-261.5 100,-261.5 100,-204.5 53,-204.5"/>
<text text-anchor="middle" x="76.5" y="-249.5" font-family="Helvetica,sans-Serif" font-size="10.00">JPanel</text>
<polyline fill="none" stroke="#bfbfbf" points="53,-242.5 100,-242.5 "/>
<text text-anchor="middle" x="76.5" y="-230.5" font-family="Helvetica,sans-Serif" font-size="10.00"> </text>
<polyline fill="none" stroke="#bfbfbf" points="53,-223.5 100,-223.5 "/>
<text text-anchor="middle" x="76.5" y="-211.5" font-family="Helvetica,sans-Serif" font-size="10.00"> </text>
</g>
<!-- Node2&#45;&gt;Node1 -->
<g id="edge1" class="edge"><title>Node2&#45;&gt;Node1</title>
<path fill="none" stroke="midnightblue" d="M76.5,-194.35C76.5,-186.08 76.5,-177.008 76.5,-167.738"/>
<polygon fill="none" stroke="midnightblue" points="73.0001,-194.35 76.5,-204.35 80.0001,-194.35 73.0001,-194.35"/>
</g>
</g>
</svg>
