<?xml version="1.0" encoding="UTF-8" standalone="no"?>
<!DOCTYPE svg PUBLIC "-//W3C//DTD SVG 1.1//EN"
 "http://www.w3.org/Graphics/SVG/1.1/DTD/svg11.dtd">
<!-- Generated by graphviz version 2.38.0 (20140413.2041)
 -->
<!-- Title: cc_klassen.mm_interfaceInheritance.AdultI Pages: 1 -->
<svg width="390pt" height="331pt"
 viewBox="0.00 0.00 390.00 331.00" xmlns="http://www.w3.org/2000/svg" xmlns:xlink="http://www.w3.org/1999/xlink">
<g id="graph0" class="graph" transform="scale(1 1) rotate(0) translate(4 327)">
<title>cc_klassen.mm_interfaceInheritance.AdultI</title>
<!-- Node1 -->
<g id="node1" class="node"><title>Node1</title>
<polygon fill="#bfbfbf" stroke="black" points="100,-138.5 100,-206.5 282,-206.5 282,-138.5 100,-138.5"/>
<text text-anchor="start" x="108" y="-194.5" font-family="Helvetica,sans-Serif" font-size="10.00">cc_klassen.mm_interfaceInheritance.</text>
<text text-anchor="middle" x="191" y="-183.5" font-family="Helvetica,sans-Serif" font-size="10.00">AdultI</text>
<polyline fill="none" stroke="black" points="100,-176.5 282,-176.5 "/>
<text text-anchor="middle" x="191" y="-164.5" font-family="Helvetica,sans-Serif" font-size="10.00"> </text>
<polyline fill="none" stroke="black" points="100,-157.5 282,-157.5 "/>
<text text-anchor="middle" x="191" y="-145.5" font-family="Helvetica,sans-Serif" font-size="10.00"> </text>
</g>
<!-- Node4 -->
<g id="node4" class="node"><title>Node4</title>
<g id="a_node4"><a xlink:href="../../de/d25/classcc__klassen_1_1mm__interface_inheritance_1_1_person.html" target="_top" xlink:title="{cc_klassen.mm_interfaceInheritance.\lPerson\n||+ setAge()\l+ getAge()\l+ setEmployer()\l+ getEmployer()\l}">
<polygon fill="none" stroke="black" points="100,-0.5 100,-101.5 282,-101.5 282,-0.5 100,-0.5"/>
<text text-anchor="start" x="108" y="-89.5" font-family="Helvetica,sans-Serif" font-size="10.00">cc_klassen.mm_interfaceInheritance.</text>
<text text-anchor="middle" x="191" y="-78.5" font-family="Helvetica,sans-Serif" font-size="10.00">Person</text>
<polyline fill="none" stroke="black" points="100,-71.5 282,-71.5 "/>
<text text-anchor="middle" x="191" y="-59.5" font-family="Helvetica,sans-Serif" font-size="10.00"> </text>
<polyline fill="none" stroke="black" points="100,-52.5 282,-52.5 "/>
<text text-anchor="start" x="108" y="-40.5" font-family="Helvetica,sans-Serif" font-size="10.00">+ setAge()</text>
<text text-anchor="start" x="108" y="-29.5" font-family="Helvetica,sans-Serif" font-size="10.00">+ getAge()</text>
<text text-anchor="start" x="108" y="-18.5" font-family="Helvetica,sans-Serif" font-size="10.00">+ setEmployer()</text>
<text text-anchor="start" x="108" y="-7.5" font-family="Helvetica,sans-Serif" font-size="10.00">+ getEmployer()</text>
</a>
</g>
</g>
<!-- Node1&#45;&gt;Node4 -->
<g id="edge3" class="edge"><title>Node1&#45;&gt;Node4</title>
<path fill="none" stroke="midnightblue" d="M191,-128.045C191,-119.469 191,-110.408 191,-101.646"/>
<polygon fill="none" stroke="midnightblue" points="187.5,-128.213 191,-138.213 194.5,-128.213 187.5,-128.213"/>
</g>
<!-- Node2 -->
<g id="node2" class="node"><title>Node2</title>
<g id="a_node2"><a xlink:href="../../d9/d5e/interfacecc__klassen_1_1mm__interface_inheritance_1_1_person_i.html" target="_top" xlink:title="{cc_klassen.mm_interfaceInheritance.\lPersonI\n||+ setAge()\l+ getAge()\l}">
<polygon fill="none" stroke="black" points="0,-243.5 0,-322.5 182,-322.5 182,-243.5 0,-243.5"/>
<text text-anchor="start" x="8" y="-310.5" font-family="Helvetica,sans-Serif" font-size="10.00">cc_klassen.mm_interfaceInheritance.</text>
<text text-anchor="middle" x="91" y="-299.5" font-family="Helvetica,sans-Serif" font-size="10.00">PersonI</text>
<polyline fill="none" stroke="black" points="0,-292.5 182,-292.5 "/>
<text text-anchor="middle" x="91" y="-280.5" font-family="Helvetica,sans-Serif" font-size="10.00"> </text>
<polyline fill="none" stroke="black" points="0,-273.5 182,-273.5 "/>
<text text-anchor="start" x="8" y="-261.5" font-family="Helvetica,sans-Serif" font-size="10.00">+ setAge()</text>
<text text-anchor="start" x="8" y="-250.5" font-family="Helvetica,sans-Serif" font-size="10.00">+ getAge()</text>
</a>
</g>
</g>
<!-- Node2&#45;&gt;Node1 -->
<g id="edge1" class="edge"><title>Node2&#45;&gt;Node1</title>
<path fill="none" stroke="midnightblue" d="M133.42,-235.975C142.534,-226.086 151.992,-215.824 160.545,-206.544"/>
<polygon fill="none" stroke="midnightblue" points="130.741,-233.716 126.538,-243.441 135.889,-238.46 130.741,-233.716"/>
</g>
<!-- Node3 -->
<g id="node3" class="node"><title>Node3</title>
<g id="a_node3"><a xlink:href="../../d0/dfa/interfacecc__klassen_1_1mm__interface_inheritance_1_1_employable.html" target="_top" xlink:title="{cc_klassen.mm_interfaceInheritance.\lEmployable\n||+ setEmployer()\l+ getEmployer()\l}">
<polygon fill="none" stroke="black" points="200,-243.5 200,-322.5 382,-322.5 382,-243.5 200,-243.5"/>
<text text-anchor="start" x="208" y="-310.5" font-family="Helvetica,sans-Serif" font-size="10.00">cc_klassen.mm_interfaceInheritance.</text>
<text text-anchor="middle" x="291" y="-299.5" font-family="Helvetica,sans-Serif" font-size="10.00">Employable</text>
<polyline fill="none" stroke="black" points="200,-292.5 382,-292.5 "/>
<text text-anchor="middle" x="291" y="-280.5" font-family="Helvetica,sans-Serif" font-size="10.00"> </text>
<polyline fill="none" stroke="black" points="200,-273.5 382,-273.5 "/>
<text text-anchor="start" x="208" y="-261.5" font-family="Helvetica,sans-Serif" font-size="10.00">+ setEmployer()</text>
<text text-anchor="start" x="208" y="-250.5" font-family="Helvetica,sans-Serif" font-size="10.00">+ getEmployer()</text>
</a>
</g>
</g>
<!-- Node3&#45;&gt;Node1 -->
<g id="edge2" class="edge"><title>Node3&#45;&gt;Node1</title>
<path fill="none" stroke="midnightblue" d="M248.58,-235.975C239.466,-226.086 230.008,-215.824 221.455,-206.544"/>
<polygon fill="none" stroke="midnightblue" points="246.111,-238.46 255.462,-243.441 251.259,-233.716 246.111,-238.46"/>
</g>
</g>
</svg>
