<?xml version="1.0" encoding="UTF-8" standalone="no"?>
<!DOCTYPE svg PUBLIC "-//W3C//DTD SVG 1.1//EN"
 "http://www.w3.org/Graphics/SVG/1.1/DTD/svg11.dtd">
<!-- Generated by graphviz version 2.38.0 (20140413.2041)
 -->
<!-- Title: ee_polymorphism.aa_PolymorphWInheritance.Child Pages: 1 -->
<svg width="171pt" height="204pt"
 viewBox="0.00 0.00 171.00 204.00" xmlns="http://www.w3.org/2000/svg" xmlns:xlink="http://www.w3.org/1999/xlink">
<g id="graph0" class="graph" transform="scale(1 1) rotate(0) translate(4 200)">
<title>ee_polymorphism.aa_PolymorphWInheritance.Child</title>
<!-- Node1 -->
<g id="node1" class="node"><title>Node1</title>
<polygon fill="#bfbfbf" stroke="black" points="4.5,-0.5 4.5,-79.5 158.5,-79.5 158.5,-0.5 4.5,-0.5"/>
<text text-anchor="start" x="12.5" y="-67.5" font-family="Helvetica,sans-Serif" font-size="10.00">ee_polymorphism.aa</text>
<text text-anchor="middle" x="81.5" y="-56.5" font-family="Helvetica,sans-Serif" font-size="10.00">_PolymorphWInheritance.Child</text>
<polyline fill="none" stroke="black" points="4.5,-49.5 158.5,-49.5 "/>
<text text-anchor="middle" x="81.5" y="-37.5" font-family="Helvetica,sans-Serif" font-size="10.00"> </text>
<polyline fill="none" stroke="black" points="4.5,-30.5 158.5,-30.5 "/>
<text text-anchor="start" x="12.5" y="-18.5" font-family="Helvetica,sans-Serif" font-size="10.00">~ setSchool()</text>
<text text-anchor="start" x="12.5" y="-7.5" font-family="Helvetica,sans-Serif" font-size="10.00">~ getSchool()</text>
</g>
<!-- Node2 -->
<g id="node2" class="node"><title>Node2</title>
<g id="a_node2"><a xlink:href="../../d3/ddb/classee__polymorphism_1_1aa___polymorph_w_inheritance_1_1_person.html" target="_top" xlink:title="{ee_polymorphism.aa\l_PolymorphWInheritance.Person\n||~ setAge()\l~ getAge()\l}">
<polygon fill="none" stroke="black" points="0,-116.5 0,-195.5 163,-195.5 163,-116.5 0,-116.5"/>
<text text-anchor="start" x="8" y="-183.5" font-family="Helvetica,sans-Serif" font-size="10.00">ee_polymorphism.aa</text>
<text text-anchor="middle" x="81.5" y="-172.5" font-family="Helvetica,sans-Serif" font-size="10.00">_PolymorphWInheritance.Person</text>
<polyline fill="none" stroke="black" points="0,-165.5 163,-165.5 "/>
<text text-anchor="middle" x="81.5" y="-153.5" font-family="Helvetica,sans-Serif" font-size="10.00"> </text>
<polyline fill="none" stroke="black" points="0,-146.5 163,-146.5 "/>
<text text-anchor="start" x="8" y="-134.5" font-family="Helvetica,sans-Serif" font-size="10.00">~ setAge()</text>
<text text-anchor="start" x="8" y="-123.5" font-family="Helvetica,sans-Serif" font-size="10.00">~ getAge()</text>
</a>
</g>
</g>
<!-- Node2&#45;&gt;Node1 -->
<g id="edge1" class="edge"><title>Node2&#45;&gt;Node1</title>
<path fill="none" stroke="midnightblue" d="M81.5,-106.146C81.5,-97.256 81.5,-88.0961 81.5,-79.5555"/>
<polygon fill="none" stroke="midnightblue" points="78.0001,-106.405 81.5,-116.405 85.0001,-106.405 78.0001,-106.405"/>
</g>
</g>
</svg>
