<?xml version="1.0" encoding="UTF-8" standalone="no"?>
<!DOCTYPE svg PUBLIC "-//W3C//DTD SVG 1.1//EN"
 "http://www.w3.org/Graphics/SVG/1.1/DTD/svg11.dtd">
<!-- Generated by graphviz version 2.38.0 (20140413.2041)
 -->
<!-- Title: ee_polymorphism.aa_PolymorphWInheritance.Person Pages: 1 -->
<svg width="334pt" height="215pt"
 viewBox="0.00 0.00 334.00 215.00" xmlns="http://www.w3.org/2000/svg" xmlns:xlink="http://www.w3.org/1999/xlink">
<g id="graph0" class="graph" transform="scale(1 1) rotate(0) translate(4 211)">
<title>ee_polymorphism.aa_PolymorphWInheritance.Person</title>
<!-- Node1 -->
<g id="node1" class="node"><title>Node1</title>
<polygon fill="#bfbfbf" stroke="black" points="81.5,-127.5 81.5,-206.5 244.5,-206.5 244.5,-127.5 81.5,-127.5"/>
<text text-anchor="start" x="89.5" y="-194.5" font-family="Helvetica,sans-Serif" font-size="10.00">ee_polymorphism.aa</text>
<text text-anchor="middle" x="163" y="-183.5" font-family="Helvetica,sans-Serif" font-size="10.00">_PolymorphWInheritance.Person</text>
<polyline fill="none" stroke="black" points="81.5,-176.5 244.5,-176.5 "/>
<text text-anchor="middle" x="163" y="-164.5" font-family="Helvetica,sans-Serif" font-size="10.00"> </text>
<polyline fill="none" stroke="black" points="81.5,-157.5 244.5,-157.5 "/>
<text text-anchor="start" x="89.5" y="-145.5" font-family="Helvetica,sans-Serif" font-size="10.00">~ setAge()</text>
<text text-anchor="start" x="89.5" y="-134.5" font-family="Helvetica,sans-Serif" font-size="10.00">~ getAge()</text>
</g>
<!-- Node2 -->
<g id="node2" class="node"><title>Node2</title>
<g id="a_node2"><a xlink:href="../../db/d1b/classee__polymorphism_1_1aa___polymorph_w_inheritance_1_1_adult.html" target="_top" xlink:title="{ee_polymorphism.aa\l_PolymorphWInheritance.Adult\n||~ setEmployer()\l~ getEmployer()\l~ getAge()\l}">
<polygon fill="none" stroke="black" points="0,-0.5 0,-90.5 154,-90.5 154,-0.5 0,-0.5"/>
<text text-anchor="start" x="8" y="-78.5" font-family="Helvetica,sans-Serif" font-size="10.00">ee_polymorphism.aa</text>
<text text-anchor="middle" x="77" y="-67.5" font-family="Helvetica,sans-Serif" font-size="10.00">_PolymorphWInheritance.Adult</text>
<polyline fill="none" stroke="black" points="0,-60.5 154,-60.5 "/>
<text text-anchor="middle" x="77" y="-48.5" font-family="Helvetica,sans-Serif" font-size="10.00"> </text>
<polyline fill="none" stroke="black" points="0,-41.5 154,-41.5 "/>
<text text-anchor="start" x="8" y="-29.5" font-family="Helvetica,sans-Serif" font-size="10.00">~ setEmployer()</text>
<text text-anchor="start" x="8" y="-18.5" font-family="Helvetica,sans-Serif" font-size="10.00">~ getEmployer()</text>
<text text-anchor="start" x="8" y="-7.5" font-family="Helvetica,sans-Serif" font-size="10.00">~ getAge()</text>
</a>
</g>
</g>
<!-- Node1&#45;&gt;Node2 -->
<g id="edge1" class="edge"><title>Node1&#45;&gt;Node2</title>
<path fill="none" stroke="midnightblue" d="M129.092,-118.884C122.461,-109.669 115.527,-100.034 108.961,-90.9111"/>
<polygon fill="none" stroke="midnightblue" points="126.396,-121.13 135.078,-127.202 132.078,-117.041 126.396,-121.13"/>
</g>
<!-- Node3 -->
<g id="node3" class="node"><title>Node3</title>
<g id="a_node3"><a xlink:href="../../d9/d74/classee__polymorphism_1_1aa___polymorph_w_inheritance_1_1_child.html" target="_top" xlink:title="{ee_polymorphism.aa\l_PolymorphWInheritance.Child\n||~ setSchool()\l~ getSchool()\l}">
<polygon fill="none" stroke="black" points="172,-6 172,-85 326,-85 326,-6 172,-6"/>
<text text-anchor="start" x="180" y="-73" font-family="Helvetica,sans-Serif" font-size="10.00">ee_polymorphism.aa</text>
<text text-anchor="middle" x="249" y="-62" font-family="Helvetica,sans-Serif" font-size="10.00">_PolymorphWInheritance.Child</text>
<polyline fill="none" stroke="black" points="172,-55 326,-55 "/>
<text text-anchor="middle" x="249" y="-43" font-family="Helvetica,sans-Serif" font-size="10.00"> </text>
<polyline fill="none" stroke="black" points="172,-36 326,-36 "/>
<text text-anchor="start" x="180" y="-24" font-family="Helvetica,sans-Serif" font-size="10.00">~ setSchool()</text>
<text text-anchor="start" x="180" y="-13" font-family="Helvetica,sans-Serif" font-size="10.00">~ getSchool()</text>
</a>
</g>
</g>
<!-- Node1&#45;&gt;Node3 -->
<g id="edge2" class="edge"><title>Node1&#45;&gt;Node3</title>
<path fill="none" stroke="midnightblue" d="M196.965,-118.804C205.006,-107.631 213.489,-95.8439 221.218,-85.1036"/>
<polygon fill="none" stroke="midnightblue" points="193.922,-117.041 190.922,-127.202 199.604,-121.13 193.922,-117.041"/>
</g>
</g>
</svg>
