<?xml version="1.0" encoding="UTF-8" standalone="no"?>
<!DOCTYPE svg PUBLIC "-//W3C//DTD SVG 1.1//EN"
 "http://www.w3.org/Graphics/SVG/1.1/DTD/svg11.dtd">
<!-- Generated by graphviz version 2.38.0 (20140413.2041)
 -->
<!-- Title: cc_klassen.mm_interfaceInheritance.PersonI Pages: 1 -->
<svg width="190pt" height="331pt"
 viewBox="0.00 0.00 190.00 331.00" xmlns="http://www.w3.org/2000/svg" xmlns:xlink="http://www.w3.org/1999/xlink">
<g id="graph0" class="graph" transform="scale(1 1) rotate(0) translate(4 327)">
<title>cc_klassen.mm_interfaceInheritance.PersonI</title>
<!-- Node1 -->
<g id="node1" class="node"><title>Node1</title>
<polygon fill="#bfbfbf" stroke="black" points="0,-243.5 0,-322.5 182,-322.5 182,-243.5 0,-243.5"/>
<text text-anchor="start" x="8" y="-310.5" font-family="Helvetica,sans-Serif" font-size="10.00">cc_klassen.mm_interfaceInheritance.</text>
<text text-anchor="middle" x="91" y="-299.5" font-family="Helvetica,sans-Serif" font-size="10.00">PersonI</text>
<polyline fill="none" stroke="black" points="0,-292.5 182,-292.5 "/>
<text text-anchor="middle" x="91" y="-280.5" font-family="Helvetica,sans-Serif" font-size="10.00"> </text>
<polyline fill="none" stroke="black" points="0,-273.5 182,-273.5 "/>
<text text-anchor="start" x="8" y="-261.5" font-family="Helvetica,sans-Serif" font-size="10.00">+ setAge()</text>
<text text-anchor="start" x="8" y="-250.5" font-family="Helvetica,sans-Serif" font-size="10.00">+ getAge()</text>
</g>
<!-- Node2 -->
<g id="node2" class="node"><title>Node2</title>
<g id="a_node2"><a xlink:href="../../dc/d26/interfacecc__klassen_1_1mm__interface_inheritance_1_1_adult_i.html" target="_top" xlink:title="{cc_klassen.mm_interfaceInheritance.\lAdultI\n||}">
<polygon fill="none" stroke="black" points="0,-138.5 0,-206.5 182,-206.5 182,-138.5 0,-138.5"/>
<text text-anchor="start" x="8" y="-194.5" font-family="Helvetica,sans-Serif" font-size="10.00">cc_klassen.mm_interfaceInheritance.</text>
<text text-anchor="middle" x="91" y="-183.5" font-family="Helvetica,sans-Serif" font-size="10.00">AdultI</text>
<polyline fill="none" stroke="black" points="0,-176.5 182,-176.5 "/>
<text text-anchor="middle" x="91" y="-164.5" font-family="Helvetica,sans-Serif" font-size="10.00"> </text>
<polyline fill="none" stroke="black" points="0,-157.5 182,-157.5 "/>
<text text-anchor="middle" x="91" y="-145.5" font-family="Helvetica,sans-Serif" font-size="10.00"> </text>
</a>
</g>
</g>
<!-- Node1&#45;&gt;Node2 -->
<g id="edge1" class="edge"><title>Node1&#45;&gt;Node2</title>
<path fill="none" stroke="midnightblue" d="M91,-233.349C91,-224.282 91,-215.005 91,-206.544"/>
<polygon fill="none" stroke="midnightblue" points="87.5001,-233.441 91,-243.441 94.5001,-233.441 87.5001,-233.441"/>
</g>
<!-- Node3 -->
<g id="node3" class="node"><title>Node3</title>
<g id="a_node3"><a xlink:href="../../de/d25/classcc__klassen_1_1mm__interface_inheritance_1_1_person.html" target="_top" xlink:title="{cc_klassen.mm_interfaceInheritance.\lPerson\n||+ setAge()\l+ getAge()\l+ setEmployer()\l+ getEmployer()\l}">
<polygon fill="none" stroke="black" points="0,-0.5 0,-101.5 182,-101.5 182,-0.5 0,-0.5"/>
<text text-anchor="start" x="8" y="-89.5" font-family="Helvetica,sans-Serif" font-size="10.00">cc_klassen.mm_interfaceInheritance.</text>
<text text-anchor="middle" x="91" y="-78.5" font-family="Helvetica,sans-Serif" font-size="10.00">Person</text>
<polyline fill="none" stroke="black" points="0,-71.5 182,-71.5 "/>
<text text-anchor="middle" x="91" y="-59.5" font-family="Helvetica,sans-Serif" font-size="10.00"> </text>
<polyline fill="none" stroke="black" points="0,-52.5 182,-52.5 "/>
<text text-anchor="start" x="8" y="-40.5" font-family="Helvetica,sans-Serif" font-size="10.00">+ setAge()</text>
<text text-anchor="start" x="8" y="-29.5" font-family="Helvetica,sans-Serif" font-size="10.00">+ getAge()</text>
<text text-anchor="start" x="8" y="-18.5" font-family="Helvetica,sans-Serif" font-size="10.00">+ setEmployer()</text>
<text text-anchor="start" x="8" y="-7.5" font-family="Helvetica,sans-Serif" font-size="10.00">+ getEmployer()</text>
</a>
</g>
</g>
<!-- Node2&#45;&gt;Node3 -->
<g id="edge2" class="edge"><title>Node2&#45;&gt;Node3</title>
<path fill="none" stroke="midnightblue" d="M91,-128.045C91,-119.469 91,-110.408 91,-101.646"/>
<polygon fill="none" stroke="midnightblue" points="87.5001,-128.213 91,-138.213 94.5001,-128.213 87.5001,-128.213"/>
</g>
</g>
</svg>
