<?xml version="1.0" encoding="UTF-8" standalone="no"?>
<!DOCTYPE svg PUBLIC "-//W3C//DTD SVG 1.1//EN"
 "http://www.w3.org/Graphics/SVG/1.1/DTD/svg11.dtd">
<!-- Generated by graphviz version 2.38.0 (20140413.2041)
 -->
<!-- Title: hi_inheritance_et_al.dd_composition.PersonImpl Pages: 1 -->
<svg width="137pt" height="193pt"
 viewBox="0.00 0.00 137.00 193.00" xmlns="http://www.w3.org/2000/svg" xmlns:xlink="http://www.w3.org/1999/xlink">
<g id="graph0" class="graph" transform="scale(1 1) rotate(0) translate(4 189)">
<title>hi_inheritance_et_al.dd_composition.PersonImpl</title>
<!-- Node1 -->
<g id="node1" class="node"><title>Node1</title>
<polygon fill="#bfbfbf" stroke="black" points="0,-0.5 0,-79.5 129,-79.5 129,-0.5 0,-0.5"/>
<text text-anchor="start" x="8" y="-67.5" font-family="Helvetica,sans-Serif" font-size="10.00">hi_inheritance_et_al.dd</text>
<text text-anchor="middle" x="64.5" y="-56.5" font-family="Helvetica,sans-Serif" font-size="10.00">_composition.PersonImpl</text>
<polyline fill="none" stroke="black" points="0,-49.5 129,-49.5 "/>
<text text-anchor="start" x="8" y="-37.5" font-family="Helvetica,sans-Serif" font-size="10.00">~ age</text>
<polyline fill="none" stroke="black" points="0,-30.5 129,-30.5 "/>
<text text-anchor="start" x="8" y="-18.5" font-family="Helvetica,sans-Serif" font-size="10.00">+ getAge()</text>
<text text-anchor="start" x="8" y="-7.5" font-family="Helvetica,sans-Serif" font-size="10.00">~ PersonImpl()</text>
</g>
<!-- Node2 -->
<g id="node2" class="node"><title>Node2</title>
<g id="a_node2"><a xlink:href="../../d9/d96/interfacehi__inheritance__et__al_1_1dd__composition_1_1_person_i.html" target="_top" xlink:title="{hi_inheritance_et_al.dd\l_composition.PersonI\n||+ getAge()\l}">
<polygon fill="none" stroke="black" points="4.5,-116.5 4.5,-184.5 124.5,-184.5 124.5,-116.5 4.5,-116.5"/>
<text text-anchor="start" x="12.5" y="-172.5" font-family="Helvetica,sans-Serif" font-size="10.00">hi_inheritance_et_al.dd</text>
<text text-anchor="middle" x="64.5" y="-161.5" font-family="Helvetica,sans-Serif" font-size="10.00">_composition.PersonI</text>
<polyline fill="none" stroke="black" points="4.5,-154.5 124.5,-154.5 "/>
<text text-anchor="middle" x="64.5" y="-142.5" font-family="Helvetica,sans-Serif" font-size="10.00"> </text>
<polyline fill="none" stroke="black" points="4.5,-135.5 124.5,-135.5 "/>
<text text-anchor="start" x="12.5" y="-123.5" font-family="Helvetica,sans-Serif" font-size="10.00">+ getAge()</text>
</a>
</g>
</g>
<!-- Node2&#45;&gt;Node1 -->
<g id="edge1" class="edge"><title>Node2&#45;&gt;Node1</title>
<path fill="none" stroke="midnightblue" d="M64.5,-106.274C64.5,-97.4764 64.5,-88.2753 64.5,-79.6493"/>
<polygon fill="none" stroke="midnightblue" points="61.0001,-106.357 64.5,-116.357 68.0001,-106.357 61.0001,-106.357"/>
</g>
</g>
</svg>
