<?xml version="1.0" encoding="UTF-8" standalone="no"?>
<!DOCTYPE svg PUBLIC "-//W3C//DTD SVG 1.1//EN"
 "http://www.w3.org/Graphics/SVG/1.1/DTD/svg11.dtd">
<!-- Generated by graphviz version 2.38.0 (20140413.2041)
 -->
<!-- Title: mm_graphics.zz_Start.StrokeAndFill Pages: 1 -->
<svg width="158pt" height="303pt"
 viewBox="0.00 0.00 158.00 303.00" xmlns="http://www.w3.org/2000/svg" xmlns:xlink="http://www.w3.org/1999/xlink">
<g id="graph0" class="graph" transform="scale(1 1) rotate(0) translate(4 299)">
<title>mm_graphics.zz_Start.StrokeAndFill</title>
<!-- Node1 -->
<g id="node1" class="node"><title>Node1</title>
<polygon fill="#bfbfbf" stroke="black" points="0,-0.5 0,-200.5 148,-200.5 148,-0.5 0,-0.5"/>
<text text-anchor="start" x="8" y="-188.5" font-family="Helvetica,sans-Serif" font-size="10.00">mm_graphics.zz_Start.Stroke</text>
<text text-anchor="middle" x="74" y="-177.5" font-family="Helvetica,sans-Serif" font-size="10.00">AndFill</text>
<polyline fill="none" stroke="black" points="0,-170.5 148,-170.5 "/>
<text text-anchor="start" x="8" y="-158.5" font-family="Helvetica,sans-Serif" font-size="10.00">+ no2D</text>
<text text-anchor="start" x="8" y="-147.5" font-family="Helvetica,sans-Serif" font-size="10.00">~ primLabel</text>
<text text-anchor="start" x="8" y="-136.5" font-family="Helvetica,sans-Serif" font-size="10.00">~ lineLabel</text>
<text text-anchor="start" x="8" y="-125.5" font-family="Helvetica,sans-Serif" font-size="10.00">~ paintLabel</text>
<text text-anchor="start" x="8" y="-114.5" font-family="Helvetica,sans-Serif" font-size="10.00">~ strokeLabel</text>
<text text-anchor="start" x="8" y="-103.5" font-family="Helvetica,sans-Serif" font-size="10.00">~ display</text>
<text text-anchor="start" x="8" y="-92.5" font-family="Helvetica,sans-Serif" font-size="10.00">~ index</text>
<text text-anchor="start" x="8" y="-81.5" font-family="Helvetica,sans-Serif" font-size="10.00">~ primitive</text>
<text text-anchor="start" x="8" y="-70.5" font-family="Helvetica,sans-Serif" font-size="10.00">~ line</text>
<text text-anchor="start" x="8" y="-59.5" font-family="Helvetica,sans-Serif" font-size="10.00">~ paint</text>
<text text-anchor="start" x="8" y="-48.5" font-family="Helvetica,sans-Serif" font-size="10.00">~ stroke</text>
<polyline fill="none" stroke="black" points="0,-41.5 148,-41.5 "/>
<text text-anchor="start" x="8" y="-29.5" font-family="Helvetica,sans-Serif" font-size="10.00">+ init()</text>
<text text-anchor="start" x="8" y="-18.5" font-family="Helvetica,sans-Serif" font-size="10.00">+ itemStateChanged()</text>
<text text-anchor="start" x="8" y="-7.5" font-family="Helvetica,sans-Serif" font-size="10.00">+ main()</text>
</g>
<!-- Node2 -->
<g id="node2" class="node"><title>Node2</title>
<polygon fill="none" stroke="#bfbfbf" points="10,-237.5 10,-294.5 60,-294.5 60,-237.5 10,-237.5"/>
<text text-anchor="middle" x="35" y="-282.5" font-family="Helvetica,sans-Serif" font-size="10.00">JApplet</text>
<polyline fill="none" stroke="#bfbfbf" points="10,-275.5 60,-275.5 "/>
<text text-anchor="middle" x="35" y="-263.5" font-family="Helvetica,sans-Serif" font-size="10.00"> </text>
<polyline fill="none" stroke="#bfbfbf" points="10,-256.5 60,-256.5 "/>
<text text-anchor="middle" x="35" y="-244.5" font-family="Helvetica,sans-Serif" font-size="10.00"> </text>
</g>
<!-- Node2&#45;&gt;Node1 -->
<g id="edge1" class="edge"><title>Node2&#45;&gt;Node1</title>
<path fill="none" stroke="midnightblue" d="M43.989,-227.316C45.956,-219.069 48.1265,-209.97 50.3736,-200.549"/>
<polygon fill="none" stroke="midnightblue" points="40.5316,-226.725 41.6158,-237.264 47.3406,-228.349 40.5316,-226.725"/>
</g>
<!-- Node3 -->
<g id="node3" class="node"><title>Node3</title>
<polygon fill="none" stroke="#bfbfbf" points="78,-237.5 78,-294.5 150,-294.5 150,-237.5 78,-237.5"/>
<text text-anchor="middle" x="114" y="-282.5" font-family="Helvetica,sans-Serif" font-size="10.00">ItemListener</text>
<polyline fill="none" stroke="#bfbfbf" points="78,-275.5 150,-275.5 "/>
<text text-anchor="middle" x="114" y="-263.5" font-family="Helvetica,sans-Serif" font-size="10.00"> </text>
<polyline fill="none" stroke="#bfbfbf" points="78,-256.5 150,-256.5 "/>
<text text-anchor="middle" x="114" y="-244.5" font-family="Helvetica,sans-Serif" font-size="10.00"> </text>
</g>
<!-- Node3&#45;&gt;Node1 -->
<g id="edge2" class="edge"><title>Node3&#45;&gt;Node1</title>
<path fill="none" stroke="midnightblue" d="M104.781,-227.316C102.763,-219.069 100.537,-209.97 98.2322,-200.549"/>
<polygon fill="none" stroke="midnightblue" points="101.438,-228.383 107.215,-237.264 108.238,-226.719 101.438,-228.383"/>
</g>
</g>
</svg>
