<?xml version="1.0" encoding="UTF-8" standalone="no"?>
<!DOCTYPE svg PUBLIC "-//W3C//DTD SVG 1.1//EN"
 "http://www.w3.org/Graphics/SVG/1.1/DTD/svg11.dtd">
<!-- Generated by graphviz version 2.38.0 (20140413.2041)
 -->
<!-- Title: ff_collections.bb_ListWithPolymorphismAndCastAndInterface.CanHowlI Pages: 1 -->
<svg width="400pt" height="226pt"
 viewBox="0.00 0.00 400.00 226.00" xmlns="http://www.w3.org/2000/svg" xmlns:xlink="http://www.w3.org/1999/xlink">
<g id="graph0" class="graph" transform="scale(1 1) rotate(0) translate(4 222)">
<title>ff_collections.bb_ListWithPolymorphismAndCastAndInterface.CanHowlI</title>
<!-- Node1 -->
<g id="node1" class="node"><title>Node1</title>
<polygon fill="#bfbfbf" stroke="black" points="102,-138.5 102,-217.5 280,-217.5 280,-138.5 102,-138.5"/>
<text text-anchor="start" x="110" y="-205.5" font-family="Helvetica,sans-Serif" font-size="10.00">ff_collections.bb_ListWith</text>
<text text-anchor="start" x="110" y="-194.5" font-family="Helvetica,sans-Serif" font-size="10.00">PolymorphismAndCastAndInterface.</text>
<text text-anchor="middle" x="191" y="-183.5" font-family="Helvetica,sans-Serif" font-size="10.00">CanHowlI</text>
<polyline fill="none" stroke="black" points="102,-176.5 280,-176.5 "/>
<text text-anchor="middle" x="191" y="-164.5" font-family="Helvetica,sans-Serif" font-size="10.00"> </text>
<polyline fill="none" stroke="black" points="102,-157.5 280,-157.5 "/>
<text text-anchor="start" x="110" y="-145.5" font-family="Helvetica,sans-Serif" font-size="10.00">+ howl()</text>
</g>
<!-- Node2 -->
<g id="node2" class="node"><title>Node2</title>
<g id="a_node2"><a xlink:href="../../d7/d34/classff__collections_1_1bb___list_with_polymorphism_and_cast_and_interface_1_1_cayote.html" target="_top" xlink:title="{ff_collections.bb_ListWith\lPolymorphismAndCastAndInterface.\lCayote\n||+ getId()\l+ Cayote()\l+ howl()\l}">
<polygon fill="none" stroke="black" points="0,-0.5 0,-101.5 178,-101.5 178,-0.5 0,-0.5"/>
<text text-anchor="start" x="8" y="-89.5" font-family="Helvetica,sans-Serif" font-size="10.00">ff_collections.bb_ListWith</text>
<text text-anchor="start" x="8" y="-78.5" font-family="Helvetica,sans-Serif" font-size="10.00">PolymorphismAndCastAndInterface.</text>
<text text-anchor="middle" x="89" y="-67.5" font-family="Helvetica,sans-Serif" font-size="10.00">Cayote</text>
<polyline fill="none" stroke="black" points="0,-60.5 178,-60.5 "/>
<text text-anchor="middle" x="89" y="-48.5" font-family="Helvetica,sans-Serif" font-size="10.00"> </text>
<polyline fill="none" stroke="black" points="0,-41.5 178,-41.5 "/>
<text text-anchor="start" x="8" y="-29.5" font-family="Helvetica,sans-Serif" font-size="10.00">+ getId()</text>
<text text-anchor="start" x="8" y="-18.5" font-family="Helvetica,sans-Serif" font-size="10.00">+ Cayote()</text>
<text text-anchor="start" x="8" y="-7.5" font-family="Helvetica,sans-Serif" font-size="10.00">+ howl()</text>
</a>
</g>
</g>
<!-- Node1&#45;&gt;Node2 -->
<g id="edge1" class="edge"><title>Node1&#45;&gt;Node2</title>
<path fill="none" stroke="midnightblue" d="M153.206,-130.683C145.494,-121.233 137.351,-111.253 129.548,-101.691"/>
<polygon fill="none" stroke="midnightblue" points="150.53,-132.941 159.564,-138.476 155.954,-128.515 150.53,-132.941"/>
</g>
<!-- Node3 -->
<g id="node3" class="node"><title>Node3</title>
<g id="a_node3"><a xlink:href="../../da/dca/classff__collections_1_1bb___list_with_polymorphism_and_cast_and_interface_1_1_dog.html" target="_top" xlink:title="{ff_collections.bb_ListWith\lPolymorphismAndCastAndInterface.Dog\n||+ getId()\l+ Dog()\l+ howl()\l}">
<polygon fill="none" stroke="black" points="196,-6 196,-96 392,-96 392,-6 196,-6"/>
<text text-anchor="start" x="204" y="-84" font-family="Helvetica,sans-Serif" font-size="10.00">ff_collections.bb_ListWith</text>
<text text-anchor="middle" x="294" y="-73" font-family="Helvetica,sans-Serif" font-size="10.00">PolymorphismAndCastAndInterface.Dog</text>
<polyline fill="none" stroke="black" points="196,-66 392,-66 "/>
<text text-anchor="middle" x="294" y="-54" font-family="Helvetica,sans-Serif" font-size="10.00"> </text>
<polyline fill="none" stroke="black" points="196,-47 392,-47 "/>
<text text-anchor="start" x="204" y="-35" font-family="Helvetica,sans-Serif" font-size="10.00">+ getId()</text>
<text text-anchor="start" x="204" y="-24" font-family="Helvetica,sans-Serif" font-size="10.00">+ Dog()</text>
<text text-anchor="start" x="204" y="-13" font-family="Helvetica,sans-Serif" font-size="10.00">+ howl()</text>
</a>
</g>
</g>
<!-- Node1&#45;&gt;Node3 -->
<g id="edge2" class="edge"><title>Node1&#45;&gt;Node3</title>
<path fill="none" stroke="midnightblue" d="M229.329,-130.484C238.545,-119.299 248.364,-107.383 257.495,-96.3026"/>
<polygon fill="none" stroke="midnightblue" points="226.402,-128.533 222.744,-138.476 231.804,-132.984 226.402,-128.533"/>
</g>
</g>
</svg>
