<?xml version="1.0" encoding="UTF-8" standalone="no"?>
<!DOCTYPE svg PUBLIC "-//W3C//DTD SVG 1.1//EN"
 "http://www.w3.org/Graphics/SVG/1.1/DTD/svg11.dtd">
<!-- Generated by graphviz version 2.38.0 (20140413.2041)
 -->
<!-- Title: ee_polymorphism.bb_PolymorphWInterface.Dog Pages: 1 -->
<svg width="158pt" height="226pt"
 viewBox="0.00 0.00 158.00 226.00" xmlns="http://www.w3.org/2000/svg" xmlns:xlink="http://www.w3.org/1999/xlink">
<g id="graph0" class="graph" transform="scale(1 1) rotate(0) translate(4 222)">
<title>ee_polymorphism.bb_PolymorphWInterface.Dog</title>
<!-- Node1 -->
<g id="node1" class="node"><title>Node1</title>
<polygon fill="#bfbfbf" stroke="black" points="5.5,-0.5 5.5,-101.5 144.5,-101.5 144.5,-0.5 5.5,-0.5"/>
<text text-anchor="start" x="13.5" y="-89.5" font-family="Helvetica,sans-Serif" font-size="10.00">ee_polymorphism.bb</text>
<text text-anchor="middle" x="75" y="-78.5" font-family="Helvetica,sans-Serif" font-size="10.00">_PolymorphWInterface.Dog</text>
<polyline fill="none" stroke="black" points="5.5,-71.5 144.5,-71.5 "/>
<text text-anchor="middle" x="75" y="-59.5" font-family="Helvetica,sans-Serif" font-size="10.00"> </text>
<polyline fill="none" stroke="black" points="5.5,-52.5 144.5,-52.5 "/>
<text text-anchor="start" x="13.5" y="-40.5" font-family="Helvetica,sans-Serif" font-size="10.00">+ getId()</text>
<text text-anchor="start" x="13.5" y="-29.5" font-family="Helvetica,sans-Serif" font-size="10.00">+ move()</text>
<text text-anchor="start" x="13.5" y="-18.5" font-family="Helvetica,sans-Serif" font-size="10.00">+ bark()</text>
<text text-anchor="start" x="13.5" y="-7.5" font-family="Helvetica,sans-Serif" font-size="10.00">~ Dog()</text>
</g>
<!-- Node2 -->
<g id="node2" class="node"><title>Node2</title>
<g id="a_node2"><a xlink:href="../../d7/d95/interfaceee__polymorphism_1_1bb___polymorph_w_interface_1_1_agent_i.html" target="_top" xlink:title="{ee_polymorphism.bb\l_PolymorphWInterface.AgentI\n||+ getId()\l+ move()\l}">
<polygon fill="none" stroke="black" points="0,-138.5 0,-217.5 150,-217.5 150,-138.5 0,-138.5"/>
<text text-anchor="start" x="8" y="-205.5" font-family="Helvetica,sans-Serif" font-size="10.00">ee_polymorphism.bb</text>
<text text-anchor="middle" x="75" y="-194.5" font-family="Helvetica,sans-Serif" font-size="10.00">_PolymorphWInterface.AgentI</text>
<polyline fill="none" stroke="black" points="0,-187.5 150,-187.5 "/>
<text text-anchor="middle" x="75" y="-175.5" font-family="Helvetica,sans-Serif" font-size="10.00"> </text>
<polyline fill="none" stroke="black" points="0,-168.5 150,-168.5 "/>
<text text-anchor="start" x="8" y="-156.5" font-family="Helvetica,sans-Serif" font-size="10.00">+ getId()</text>
<text text-anchor="start" x="8" y="-145.5" font-family="Helvetica,sans-Serif" font-size="10.00">+ move()</text>
</a>
</g>
</g>
<!-- Node2&#45;&gt;Node1 -->
<g id="edge1" class="edge"><title>Node2&#45;&gt;Node1</title>
<path fill="none" stroke="midnightblue" d="M75,-128.406C75,-119.639 75,-110.488 75,-101.691"/>
<polygon fill="none" stroke="midnightblue" points="71.5001,-128.476 75,-138.476 78.5001,-128.476 71.5001,-128.476"/>
</g>
</g>
</svg>
