<?xml version="1.0" encoding="UTF-8" standalone="no"?>
<!DOCTYPE svg PUBLIC "-//W3C//DTD SVG 1.1//EN"
 "http://www.w3.org/Graphics/SVG/1.1/DTD/svg11.dtd">
<!-- Generated by graphviz version 2.38.0 (20140413.2041)
 -->
<!-- Title: hh_generics.ee_subTypesWildCards.Person Pages: 1 -->
<svg width="332pt" height="226pt"
 viewBox="0.00 0.00 332.00 226.00" xmlns="http://www.w3.org/2000/svg" xmlns:xlink="http://www.w3.org/1999/xlink">
<g id="graph0" class="graph" transform="scale(1 1) rotate(0) translate(4 222)">
<title>hh_generics.ee_subTypesWildCards.Person</title>
<!-- Node1 -->
<g id="node1" class="node"><title>Node1</title>
<polygon fill="#bfbfbf" stroke="black" points="85,-127.5 85,-217.5 238,-217.5 238,-127.5 85,-127.5"/>
<text text-anchor="start" x="93" y="-205.5" font-family="Helvetica,sans-Serif" font-size="10.00">hh_generics.ee_subTypesWild</text>
<text text-anchor="middle" x="161.5" y="-194.5" font-family="Helvetica,sans-Serif" font-size="10.00">Cards.Person</text>
<polyline fill="none" stroke="black" points="85,-187.5 238,-187.5 "/>
<text text-anchor="middle" x="161.5" y="-175.5" font-family="Helvetica,sans-Serif" font-size="10.00"> </text>
<polyline fill="none" stroke="black" points="85,-168.5 238,-168.5 "/>
<text text-anchor="start" x="93" y="-156.5" font-family="Helvetica,sans-Serif" font-size="10.00">+ setName()</text>
<text text-anchor="start" x="93" y="-145.5" font-family="Helvetica,sans-Serif" font-size="10.00">+ getName()</text>
<text text-anchor="start" x="93" y="-134.5" font-family="Helvetica,sans-Serif" font-size="10.00">+ update()</text>
</g>
<!-- Node2 -->
<g id="node2" class="node"><title>Node2</title>
<g id="a_node2"><a xlink:href="../../df/d40/classhh__generics_1_1ee__sub_types_wild_cards_1_1_adult.html" target="_top" xlink:title="{hh_generics.ee_subTypesWild\lCards.Adult\n||+ setEmployer()\l+ getEmployer()\l}">
<polygon fill="none" stroke="black" points="0,-6 0,-85 153,-85 153,-6 0,-6"/>
<text text-anchor="start" x="8" y="-73" font-family="Helvetica,sans-Serif" font-size="10.00">hh_generics.ee_subTypesWild</text>
<text text-anchor="middle" x="76.5" y="-62" font-family="Helvetica,sans-Serif" font-size="10.00">Cards.Adult</text>
<polyline fill="none" stroke="black" points="0,-55 153,-55 "/>
<text text-anchor="middle" x="76.5" y="-43" font-family="Helvetica,sans-Serif" font-size="10.00"> </text>
<polyline fill="none" stroke="black" points="0,-36 153,-36 "/>
<text text-anchor="start" x="8" y="-24" font-family="Helvetica,sans-Serif" font-size="10.00">+ setEmployer()</text>
<text text-anchor="start" x="8" y="-13" font-family="Helvetica,sans-Serif" font-size="10.00">+ getEmployer()</text>
</a>
</g>
</g>
<!-- Node1&#45;&gt;Node2 -->
<g id="edge1" class="edge"><title>Node1&#45;&gt;Node2</title>
<path fill="none" stroke="midnightblue" d="M125.73,-118.897C118.044,-107.594 110.056,-95.8468 102.807,-85.1867"/>
<polygon fill="none" stroke="midnightblue" points="123.015,-121.128 131.532,-127.43 128.803,-117.192 123.015,-121.128"/>
</g>
<!-- Node3 -->
<g id="node3" class="node"><title>Node3</title>
<g id="a_node3"><a xlink:href="../../d6/dc0/classhh__generics_1_1ee__sub_types_wild_cards_1_1_child.html" target="_top" xlink:title="{hh_generics.ee_subTypesWild\lCards.Child\n||+ setSchool()\l+ getSchool()\l+ update()\l}">
<polygon fill="none" stroke="black" points="171,-0.5 171,-90.5 324,-90.5 324,-0.5 171,-0.5"/>
<text text-anchor="start" x="179" y="-78.5" font-family="Helvetica,sans-Serif" font-size="10.00">hh_generics.ee_subTypesWild</text>
<text text-anchor="middle" x="247.5" y="-67.5" font-family="Helvetica,sans-Serif" font-size="10.00">Cards.Child</text>
<polyline fill="none" stroke="black" points="171,-60.5 324,-60.5 "/>
<text text-anchor="middle" x="247.5" y="-48.5" font-family="Helvetica,sans-Serif" font-size="10.00"> </text>
<polyline fill="none" stroke="black" points="171,-41.5 324,-41.5 "/>
<text text-anchor="start" x="179" y="-29.5" font-family="Helvetica,sans-Serif" font-size="10.00">+ setSchool()</text>
<text text-anchor="start" x="179" y="-18.5" font-family="Helvetica,sans-Serif" font-size="10.00">+ getSchool()</text>
<text text-anchor="start" x="179" y="-7.5" font-family="Helvetica,sans-Serif" font-size="10.00">+ update()</text>
</a>
</g>
</g>
<!-- Node1&#45;&gt;Node3 -->
<g id="edge2" class="edge"><title>Node1&#45;&gt;Node3</title>
<path fill="none" stroke="midnightblue" d="M197.497,-119.179C204.04,-109.669 210.804,-99.8367 217.164,-90.5937"/>
<polygon fill="none" stroke="midnightblue" points="194.605,-117.207 191.82,-127.43 200.372,-121.175 194.605,-117.207"/>
</g>
</g>
</svg>
