<?xml version="1.0" encoding="UTF-8" standalone="no"?>
<!DOCTYPE svg PUBLIC "-//W3C//DTD SVG 1.1//EN"
 "http://www.w3.org/Graphics/SVG/1.1/DTD/svg11.dtd">
<!-- Generated by graphviz version 2.38.0 (20140413.2041)
 -->
<!-- Title: ee_polymorphism.zz_Upcast.ExtendedClass Pages: 1 -->
<svg width="131pt" height="182pt"
 viewBox="0.00 0.00 131.00 182.00" xmlns="http://www.w3.org/2000/svg" xmlns:xlink="http://www.w3.org/1999/xlink">
<g id="graph0" class="graph" transform="scale(1 1) rotate(0) translate(4 178)">
<title>ee_polymorphism.zz_Upcast.ExtendedClass</title>
<!-- Node1 -->
<g id="node1" class="node"><title>Node1</title>
<polygon fill="#bfbfbf" stroke="black" points="0,-0.5 0,-68.5 123,-68.5 123,-0.5 0,-0.5"/>
<text text-anchor="start" x="8" y="-56.5" font-family="Helvetica,sans-Serif" font-size="10.00">ee_polymorphism.zz</text>
<text text-anchor="middle" x="61.5" y="-45.5" font-family="Helvetica,sans-Serif" font-size="10.00">_Upcast.ExtendedClass</text>
<polyline fill="none" stroke="black" points="0,-38.5 123,-38.5 "/>
<text text-anchor="start" x="8" y="-26.5" font-family="Helvetica,sans-Serif" font-size="10.00">~ name</text>
<polyline fill="none" stroke="black" points="0,-19.5 123,-19.5 "/>
<text text-anchor="middle" x="61.5" y="-7.5" font-family="Helvetica,sans-Serif" font-size="10.00"> </text>
</g>
<!-- Node2 -->
<g id="node2" class="node"><title>Node2</title>
<g id="a_node2"><a xlink:href="../../da/d46/classee__polymorphism_1_1zz___upcast_1_1_basic_class.html" target="_top" xlink:title="{ee_polymorphism.zz\l_Upcast.BasicClass\n|+ age\l|}">
<polygon fill="none" stroke="black" points="7.5,-105.5 7.5,-173.5 115.5,-173.5 115.5,-105.5 7.5,-105.5"/>
<text text-anchor="start" x="15.5" y="-161.5" font-family="Helvetica,sans-Serif" font-size="10.00">ee_polymorphism.zz</text>
<text text-anchor="middle" x="61.5" y="-150.5" font-family="Helvetica,sans-Serif" font-size="10.00">_Upcast.BasicClass</text>
<polyline fill="none" stroke="black" points="7.5,-143.5 115.5,-143.5 "/>
<text text-anchor="start" x="15.5" y="-131.5" font-family="Helvetica,sans-Serif" font-size="10.00">+ age</text>
<polyline fill="none" stroke="black" points="7.5,-124.5 115.5,-124.5 "/>
<text text-anchor="middle" x="61.5" y="-112.5" font-family="Helvetica,sans-Serif" font-size="10.00"> </text>
</a>
</g>
</g>
<!-- Node2&#45;&gt;Node1 -->
<g id="edge1" class="edge"><title>Node2&#45;&gt;Node1</title>
<path fill="none" stroke="midnightblue" d="M61.5,-95.1362C61.5,-86.256 61.5,-77.0447 61.5,-68.5947"/>
<polygon fill="none" stroke="midnightblue" points="58.0001,-95.3432 61.5,-105.343 65.0001,-95.3432 58.0001,-95.3432"/>
</g>
</g>
</svg>
