<?xml version="1.0" encoding="UTF-8" standalone="no"?>
<!DOCTYPE svg PUBLIC "-//W3C//DTD SVG 1.1//EN"
 "http://www.w3.org/Graphics/SVG/1.1/DTD/svg11.dtd">
<!-- Generated by graphviz version 2.38.0 (20140413.2041)
 -->
<!-- Title: ee_polymorphism.aa_PolymorphWInheritance.Adult Pages: 1 -->
<svg width="171pt" height="215pt"
 viewBox="0.00 0.00 171.00 215.00" xmlns="http://www.w3.org/2000/svg" xmlns:xlink="http://www.w3.org/1999/xlink">
<g id="graph0" class="graph" transform="scale(1 1) rotate(0) translate(4 211)">
<title>ee_polymorphism.aa_PolymorphWInheritance.Adult</title>
<!-- Node1 -->
<g id="node1" class="node"><title>Node1</title>
<polygon fill="#bfbfbf" stroke="black" points="4.5,-0.5 4.5,-90.5 158.5,-90.5 158.5,-0.5 4.5,-0.5"/>
<text text-anchor="start" x="12.5" y="-78.5" font-family="Helvetica,sans-Serif" font-size="10.00">ee_polymorphism.aa</text>
<text text-anchor="middle" x="81.5" y="-67.5" font-family="Helvetica,sans-Serif" font-size="10.00">_PolymorphWInheritance.Adult</text>
<polyline fill="none" stroke="black" points="4.5,-60.5 158.5,-60.5 "/>
<text text-anchor="middle" x="81.5" y="-48.5" font-family="Helvetica,sans-Serif" font-size="10.00"> </text>
<polyline fill="none" stroke="black" points="4.5,-41.5 158.5,-41.5 "/>
<text text-anchor="start" x="12.5" y="-29.5" font-family="Helvetica,sans-Serif" font-size="10.00">~ setEmployer()</text>
<text text-anchor="start" x="12.5" y="-18.5" font-family="Helvetica,sans-Serif" font-size="10.00">~ getEmployer()</text>
<text text-anchor="start" x="12.5" y="-7.5" font-family="Helvetica,sans-Serif" font-size="10.00">~ getAge()</text>
</g>
<!-- Node2 -->
<g id="node2" class="node"><title>Node2</title>
<g id="a_node2"><a xlink:href="../../d3/ddb/classee__polymorphism_1_1aa___polymorph_w_inheritance_1_1_person.html" target="_top" xlink:title="{ee_polymorphism.aa\l_PolymorphWInheritance.Person\n||~ setAge()\l~ getAge()\l}">
<polygon fill="none" stroke="black" points="0,-127.5 0,-206.5 163,-206.5 163,-127.5 0,-127.5"/>
<text text-anchor="start" x="8" y="-194.5" font-family="Helvetica,sans-Serif" font-size="10.00">ee_polymorphism.aa</text>
<text text-anchor="middle" x="81.5" y="-183.5" font-family="Helvetica,sans-Serif" font-size="10.00">_PolymorphWInheritance.Person</text>
<polyline fill="none" stroke="black" points="0,-176.5 163,-176.5 "/>
<text text-anchor="middle" x="81.5" y="-164.5" font-family="Helvetica,sans-Serif" font-size="10.00"> </text>
<polyline fill="none" stroke="black" points="0,-157.5 163,-157.5 "/>
<text text-anchor="start" x="8" y="-145.5" font-family="Helvetica,sans-Serif" font-size="10.00">~ setAge()</text>
<text text-anchor="start" x="8" y="-134.5" font-family="Helvetica,sans-Serif" font-size="10.00">~ getAge()</text>
</a>
</g>
</g>
<!-- Node2&#45;&gt;Node1 -->
<g id="edge1" class="edge"><title>Node2&#45;&gt;Node1</title>
<path fill="none" stroke="midnightblue" d="M81.5,-117.187C81.5,-108.491 81.5,-99.4758 81.5,-90.9111"/>
<polygon fill="none" stroke="midnightblue" points="78.0001,-117.202 81.5,-127.202 85.0001,-117.202 78.0001,-117.202"/>
</g>
</g>
</svg>
