<?xml version="1.0" encoding="UTF-8" standalone="no"?>
<!DOCTYPE svg PUBLIC "-//W3C//DTD SVG 1.1//EN"
 "http://www.w3.org/Graphics/SVG/1.1/DTD/svg11.dtd">
<!-- Generated by graphviz version 2.38.0 (20140413.2041)
 -->
<!-- Title: kk_xml.gg_ValidatingStAXReader.DgValidator Pages: 1 -->
<svg width="177pt" height="237pt"
 viewBox="0.00 0.00 177.00 237.00" xmlns="http://www.w3.org/2000/svg" xmlns:xlink="http://www.w3.org/1999/xlink">
<g id="graph0" class="graph" transform="scale(1 1) rotate(0) translate(4 233)">
<title>kk_xml.gg_ValidatingStAXReader.DgValidator</title>
<!-- Node1 -->
<g id="node1" class="node"><title>Node1</title>
<polygon fill="#bfbfbf" stroke="black" points="0,-0.5 0,-134.5 169,-134.5 169,-0.5 0,-0.5"/>
<text text-anchor="start" x="8" y="-122.5" font-family="Helvetica,sans-Serif" font-size="10.00">kk_xml.gg_ValidatingStAXReader.</text>
<text text-anchor="middle" x="84.5" y="-111.5" font-family="Helvetica,sans-Serif" font-size="10.00">DgValidator</text>
<polyline fill="none" stroke="black" points="0,-104.5 169,-104.5 "/>
<text text-anchor="middle" x="84.5" y="-92.5" font-family="Helvetica,sans-Serif" font-size="10.00"> </text>
<polyline fill="none" stroke="black" points="0,-85.5 169,-85.5 "/>
<text text-anchor="start" x="8" y="-73.5" font-family="Helvetica,sans-Serif" font-size="10.00">+ DgValidator()</text>
<text text-anchor="start" x="8" y="-62.5" font-family="Helvetica,sans-Serif" font-size="10.00">+ resolveEntity()</text>
<text text-anchor="start" x="8" y="-51.5" font-family="Helvetica,sans-Serif" font-size="10.00">+ error()</text>
<text text-anchor="start" x="8" y="-40.5" font-family="Helvetica,sans-Serif" font-size="10.00">+ fatalError()</text>
<text text-anchor="start" x="8" y="-29.5" font-family="Helvetica,sans-Serif" font-size="10.00">+ warning()</text>
<text text-anchor="start" x="8" y="-18.5" font-family="Helvetica,sans-Serif" font-size="10.00">+ validateFile()</text>
<text text-anchor="start" x="8" y="-7.5" font-family="Helvetica,sans-Serif" font-size="10.00">+ main()</text>
</g>
<!-- Node2 -->
<g id="node2" class="node"><title>Node2</title>
<polygon fill="none" stroke="#bfbfbf" points="43,-171.5 43,-228.5 126,-228.5 126,-171.5 43,-171.5"/>
<text text-anchor="middle" x="84.5" y="-216.5" font-family="Helvetica,sans-Serif" font-size="10.00">DefaultHandler</text>
<polyline fill="none" stroke="#bfbfbf" points="43,-209.5 126,-209.5 "/>
<text text-anchor="middle" x="84.5" y="-197.5" font-family="Helvetica,sans-Serif" font-size="10.00"> </text>
<polyline fill="none" stroke="#bfbfbf" points="43,-190.5 126,-190.5 "/>
<text text-anchor="middle" x="84.5" y="-178.5" font-family="Helvetica,sans-Serif" font-size="10.00"> </text>
</g>
<!-- Node2&#45;&gt;Node1 -->
<g id="edge1" class="edge"><title>Node2&#45;&gt;Node1</title>
<path fill="none" stroke="midnightblue" d="M84.5,-161.16C84.5,-152.782 84.5,-143.668 84.5,-134.533"/>
<polygon fill="none" stroke="midnightblue" points="81.0001,-161.324 84.5,-171.324 88.0001,-161.324 81.0001,-161.324"/>
</g>
</g>
</svg>
