<?xml version="1.0" encoding="UTF-8" standalone="no"?>
<!DOCTYPE svg PUBLIC "-//W3C//DTD SVG 1.1//EN"
 "http://www.w3.org/Graphics/SVG/1.1/DTD/svg11.dtd">
<!-- Generated by graphviz version 2.38.0 (20140413.2041)
 -->
<!-- Title: hh_generics.zz_templates.SpecialNode Pages: 1 -->
<svg width="167pt" height="171pt"
 viewBox="0.00 0.00 167.00 171.00" xmlns="http://www.w3.org/2000/svg" xmlns:xlink="http://www.w3.org/1999/xlink">
<g id="graph0" class="graph" transform="scale(1 1) rotate(0) translate(4 167)">
<title>hh_generics.zz_templates.SpecialNode</title>
<!-- Node1 -->
<g id="node1" class="node"><title>Node1</title>
<polygon fill="#bfbfbf" stroke="black" points="12,-0.5 12,-68.5 147,-68.5 147,-0.5 12,-0.5"/>
<text text-anchor="start" x="20" y="-56.5" font-family="Helvetica,sans-Serif" font-size="10.00">hh_generics.zz_templates.</text>
<text text-anchor="middle" x="79.5" y="-45.5" font-family="Helvetica,sans-Serif" font-size="10.00">SpecialNode</text>
<polyline fill="none" stroke="black" points="12,-38.5 147,-38.5 "/>
<text text-anchor="middle" x="79.5" y="-26.5" font-family="Helvetica,sans-Serif" font-size="10.00"> </text>
<polyline fill="none" stroke="black" points="12,-19.5 147,-19.5 "/>
<text text-anchor="middle" x="79.5" y="-7.5" font-family="Helvetica,sans-Serif" font-size="10.00"> </text>
</g>
<!-- Node2 -->
<g id="node2" class="node"><title>Node2</title>
<g id="a_node2"><a xlink:href="../../dc/d9d/classhh__generics_1_1zz__templates_1_1_node.html" target="_top" xlink:title="{hh_generics.zz_templates.Node\n||}">
<polygon fill="none" stroke="black" points="0,-105.5 0,-162.5 159,-162.5 159,-105.5 0,-105.5"/>
<text text-anchor="middle" x="79.5" y="-150.5" font-family="Helvetica,sans-Serif" font-size="10.00">hh_generics.zz_templates.Node</text>
<polyline fill="none" stroke="black" points="0,-143.5 159,-143.5 "/>
<text text-anchor="middle" x="79.5" y="-131.5" font-family="Helvetica,sans-Serif" font-size="10.00"> </text>
<polyline fill="none" stroke="black" points="0,-124.5 159,-124.5 "/>
<text text-anchor="middle" x="79.5" y="-112.5" font-family="Helvetica,sans-Serif" font-size="10.00"> </text>
</a>
</g>
</g>
<!-- Node2&#45;&gt;Node1 -->
<g id="edge1" class="edge"><title>Node2&#45;&gt;Node1</title>
<path fill="none" stroke="midnightblue" d="M79.5,-95.0631C79.5,-86.3933 79.5,-77.2431 79.5,-68.7855"/>
<polygon fill="none" stroke="midnightblue" points="76.0001,-95.3212 79.5,-105.321 83.0001,-95.3212 76.0001,-95.3212"/>
</g>
</g>
</svg>
