<?xml version="1.0" encoding="UTF-8" standalone="no"?>
<!DOCTYPE svg PUBLIC "-//W3C//DTD SVG 1.1//EN"
 "http://www.w3.org/Graphics/SVG/1.1/DTD/svg11.dtd">
<!-- Generated by graphviz version 2.38.0 (20140413.2041)
 -->
<!-- Title: cc_klassen.ll_interfaceDemo.MobileI Pages: 1 -->
<svg width="320pt" height="331pt"
 viewBox="0.00 0.00 320.00 331.00" xmlns="http://www.w3.org/2000/svg" xmlns:xlink="http://www.w3.org/1999/xlink">
<g id="graph0" class="graph" transform="scale(1 1) rotate(0) translate(4 327)">
<title>cc_klassen.ll_interfaceDemo.MobileI</title>
<!-- Node1 -->
<g id="node1" class="node"><title>Node1</title>
<polygon fill="#bfbfbf" stroke="black" points="82,-254.5 82,-322.5 229,-322.5 229,-254.5 82,-254.5"/>
<text text-anchor="start" x="90" y="-310.5" font-family="Helvetica,sans-Serif" font-size="10.00">cc_klassen.ll_interfaceDemo.</text>
<text text-anchor="middle" x="155.5" y="-299.5" font-family="Helvetica,sans-Serif" font-size="10.00">MobileI</text>
<polyline fill="none" stroke="black" points="82,-292.5 229,-292.5 "/>
<text text-anchor="middle" x="155.5" y="-280.5" font-family="Helvetica,sans-Serif" font-size="10.00"> </text>
<polyline fill="none" stroke="black" points="82,-273.5 229,-273.5 "/>
<text text-anchor="start" x="90" y="-261.5" font-family="Helvetica,sans-Serif" font-size="10.00">+ move()</text>
</g>
<!-- Node2 -->
<g id="node2" class="node"><title>Node2</title>
<g id="a_node2"><a xlink:href="../../d2/d66/interfacecc__klassen_1_1ll__interface_demo_1_1_mobile_person_i.html" target="_top" xlink:title="{cc_klassen.ll_interfaceDemo.\lMobilePersonI\n||}">
<polygon fill="none" stroke="black" points="0,-138.5 0,-206.5 147,-206.5 147,-138.5 0,-138.5"/>
<text text-anchor="start" x="8" y="-194.5" font-family="Helvetica,sans-Serif" font-size="10.00">cc_klassen.ll_interfaceDemo.</text>
<text text-anchor="middle" x="73.5" y="-183.5" font-family="Helvetica,sans-Serif" font-size="10.00">MobilePersonI</text>
<polyline fill="none" stroke="black" points="0,-176.5 147,-176.5 "/>
<text text-anchor="middle" x="73.5" y="-164.5" font-family="Helvetica,sans-Serif" font-size="10.00"> </text>
<polyline fill="none" stroke="black" points="0,-157.5 147,-157.5 "/>
<text text-anchor="middle" x="73.5" y="-145.5" font-family="Helvetica,sans-Serif" font-size="10.00"> </text>
</a>
</g>
</g>
<!-- Node1&#45;&gt;Node2 -->
<g id="edge1" class="edge"><title>Node1&#45;&gt;Node2</title>
<path fill="none" stroke="midnightblue" d="M125.589,-245.916C116.284,-232.981 106.157,-218.901 97.3262,-206.624"/>
<polygon fill="none" stroke="midnightblue" points="122.881,-248.146 131.562,-254.22 128.564,-244.058 122.881,-248.146"/>
</g>
<!-- Node4 -->
<g id="node4" class="node"><title>Node4</title>
<g id="a_node4"><a xlink:href="../../d6/d8d/classcc__klassen_1_1ll__interface_demo_1_1_person_impl2.html" target="_top" xlink:title="{cc_klassen.ll_interfaceDemo.\lPersonImpl2\n||+ PersonImpl2()\l+ getAge()\l+ move()\l}">
<polygon fill="none" stroke="black" points="165,-127.5 165,-217.5 312,-217.5 312,-127.5 165,-127.5"/>
<text text-anchor="start" x="173" y="-205.5" font-family="Helvetica,sans-Serif" font-size="10.00">cc_klassen.ll_interfaceDemo.</text>
<text text-anchor="middle" x="238.5" y="-194.5" font-family="Helvetica,sans-Serif" font-size="10.00">PersonImpl2</text>
<polyline fill="none" stroke="black" points="165,-187.5 312,-187.5 "/>
<text text-anchor="middle" x="238.5" y="-175.5" font-family="Helvetica,sans-Serif" font-size="10.00"> </text>
<polyline fill="none" stroke="black" points="165,-168.5 312,-168.5 "/>
<text text-anchor="start" x="173" y="-156.5" font-family="Helvetica,sans-Serif" font-size="10.00">+ PersonImpl2()</text>
<text text-anchor="start" x="173" y="-145.5" font-family="Helvetica,sans-Serif" font-size="10.00">+ getAge()</text>
<text text-anchor="start" x="173" y="-134.5" font-family="Helvetica,sans-Serif" font-size="10.00">+ move()</text>
</a>
</g>
</g>
<!-- Node1&#45;&gt;Node4 -->
<g id="edge3" class="edge"><title>Node1&#45;&gt;Node4</title>
<path fill="none" stroke="midnightblue" d="M185.748,-245.955C192.455,-236.743 199.585,-226.949 206.365,-217.638"/>
<polygon fill="none" stroke="midnightblue" points="182.787,-244.076 179.73,-254.22 188.446,-248.196 182.787,-244.076"/>
</g>
<!-- Node3 -->
<g id="node3" class="node"><title>Node3</title>
<g id="a_node3"><a xlink:href="../../d1/d1c/classcc__klassen_1_1ll__interface_demo_1_1_person_impl1.html" target="_top" xlink:title="{cc_klassen.ll_interfaceDemo.\lPersonImpl1\n||+ getAge()\l+ move()\l~ PersonImpl1()\l}">
<polygon fill="none" stroke="black" points="0,-0.5 0,-90.5 147,-90.5 147,-0.5 0,-0.5"/>
<text text-anchor="start" x="8" y="-78.5" font-family="Helvetica,sans-Serif" font-size="10.00">cc_klassen.ll_interfaceDemo.</text>
<text text-anchor="middle" x="73.5" y="-67.5" font-family="Helvetica,sans-Serif" font-size="10.00">PersonImpl1</text>
<polyline fill="none" stroke="black" points="0,-60.5 147,-60.5 "/>
<text text-anchor="middle" x="73.5" y="-48.5" font-family="Helvetica,sans-Serif" font-size="10.00"> </text>
<polyline fill="none" stroke="black" points="0,-41.5 147,-41.5 "/>
<text text-anchor="start" x="8" y="-29.5" font-family="Helvetica,sans-Serif" font-size="10.00">+ getAge()</text>
<text text-anchor="start" x="8" y="-18.5" font-family="Helvetica,sans-Serif" font-size="10.00">+ move()</text>
<text text-anchor="start" x="8" y="-7.5" font-family="Helvetica,sans-Serif" font-size="10.00">~ PersonImpl1()</text>
</a>
</g>
</g>
<!-- Node2&#45;&gt;Node3 -->
<g id="edge2" class="edge"><title>Node2&#45;&gt;Node3</title>
<path fill="none" stroke="midnightblue" d="M73.5,-128.026C73.5,-115.934 73.5,-102.791 73.5,-90.6596"/>
<polygon fill="none" stroke="midnightblue" points="70.0001,-128.33 73.5,-138.33 77.0001,-128.331 70.0001,-128.33"/>
</g>
</g>
</svg>
