<?xml version="1.0" encoding="UTF-8" standalone="no"?>
<!DOCTYPE svg PUBLIC "-//W3C//DTD SVG 1.1//EN"
 "http://www.w3.org/Graphics/SVG/1.1/DTD/svg11.dtd">
<!-- Generated by graphviz version 2.38.0 (20140413.2041)
 -->
<!-- Title: hh_generics.bb_simple.Person Pages: 1 -->
<svg width="316pt" height="215pt"
 viewBox="0.00 0.00 316.00 215.00" xmlns="http://www.w3.org/2000/svg" xmlns:xlink="http://www.w3.org/1999/xlink">
<g id="graph0" class="graph" transform="scale(1 1) rotate(0) translate(4 211)">
<title>hh_generics.bb_simple.Person</title>
<!-- Node1 -->
<g id="node1" class="node"><title>Node1</title>
<polygon fill="#bfbfbf" stroke="black" points="76.5,-127.5 76.5,-206.5 230.5,-206.5 230.5,-127.5 76.5,-127.5"/>
<text text-anchor="middle" x="153.5" y="-194.5" font-family="Helvetica,sans-Serif" font-size="10.00">hh_generics.bb_simple.Person</text>
<polyline fill="none" stroke="black" points="76.5,-187.5 230.5,-187.5 "/>
<text text-anchor="middle" x="153.5" y="-175.5" font-family="Helvetica,sans-Serif" font-size="10.00"> </text>
<polyline fill="none" stroke="black" points="76.5,-168.5 230.5,-168.5 "/>
<text text-anchor="start" x="84.5" y="-156.5" font-family="Helvetica,sans-Serif" font-size="10.00">+ getName()</text>
<text text-anchor="start" x="84.5" y="-145.5" font-family="Helvetica,sans-Serif" font-size="10.00">+ toString()</text>
<text text-anchor="start" x="84.5" y="-134.5" font-family="Helvetica,sans-Serif" font-size="10.00">~ Person()</text>
</g>
<!-- Node2 -->
<g id="node2" class="node"><title>Node2</title>
<g id="a_node2"><a xlink:href="../../dd/d26/classhh__generics_1_1bb__simple_1_1_adult.html" target="_top" xlink:title="{hh_generics.bb_simple.Adult\n||+ setWorkplace()\l+ getWorkplace()\l+ toString()\l~ Adult()\l}">
<polygon fill="none" stroke="black" points="0,-0.5 0,-90.5 145,-90.5 145,-0.5 0,-0.5"/>
<text text-anchor="middle" x="72.5" y="-78.5" font-family="Helvetica,sans-Serif" font-size="10.00">hh_generics.bb_simple.Adult</text>
<polyline fill="none" stroke="black" points="0,-71.5 145,-71.5 "/>
<text text-anchor="middle" x="72.5" y="-59.5" font-family="Helvetica,sans-Serif" font-size="10.00"> </text>
<polyline fill="none" stroke="black" points="0,-52.5 145,-52.5 "/>
<text text-anchor="start" x="8" y="-40.5" font-family="Helvetica,sans-Serif" font-size="10.00">+ setWorkplace()</text>
<text text-anchor="start" x="8" y="-29.5" font-family="Helvetica,sans-Serif" font-size="10.00">+ getWorkplace()</text>
<text text-anchor="start" x="8" y="-18.5" font-family="Helvetica,sans-Serif" font-size="10.00">+ toString()</text>
<text text-anchor="start" x="8" y="-7.5" font-family="Helvetica,sans-Serif" font-size="10.00">~ Adult()</text>
</a>
</g>
</g>
<!-- Node1&#45;&gt;Node2 -->
<g id="edge1" class="edge"><title>Node1&#45;&gt;Node2</title>
<path fill="none" stroke="midnightblue" d="M121.564,-118.884C115.318,-109.669 108.787,-100.034 102.603,-90.9111"/>
<polygon fill="none" stroke="midnightblue" points="118.694,-120.888 127.202,-127.202 124.488,-116.96 118.694,-120.888"/>
</g>
<!-- Node3 -->
<g id="node3" class="node"><title>Node3</title>
<g id="a_node3"><a xlink:href="../../dc/d40/classhh__generics_1_1bb__simple_1_1_child.html" target="_top" xlink:title="{hh_generics.bb_simple.Child\n||+ setSchool()\l+ getSchool()\l+ toString()\l~ Child()\l}">
<polygon fill="none" stroke="black" points="163,-0.5 163,-90.5 308,-90.5 308,-0.5 163,-0.5"/>
<text text-anchor="middle" x="235.5" y="-78.5" font-family="Helvetica,sans-Serif" font-size="10.00">hh_generics.bb_simple.Child</text>
<polyline fill="none" stroke="black" points="163,-71.5 308,-71.5 "/>
<text text-anchor="middle" x="235.5" y="-59.5" font-family="Helvetica,sans-Serif" font-size="10.00"> </text>
<polyline fill="none" stroke="black" points="163,-52.5 308,-52.5 "/>
<text text-anchor="start" x="171" y="-40.5" font-family="Helvetica,sans-Serif" font-size="10.00">+ setSchool()</text>
<text text-anchor="start" x="171" y="-29.5" font-family="Helvetica,sans-Serif" font-size="10.00">+ getSchool()</text>
<text text-anchor="start" x="171" y="-18.5" font-family="Helvetica,sans-Serif" font-size="10.00">+ toString()</text>
<text text-anchor="start" x="171" y="-7.5" font-family="Helvetica,sans-Serif" font-size="10.00">~ Child()</text>
</a>
</g>
</g>
<!-- Node1&#45;&gt;Node3 -->
<g id="edge2" class="edge"><title>Node1&#45;&gt;Node3</title>
<path fill="none" stroke="midnightblue" d="M185.831,-118.884C192.154,-109.669 198.765,-100.034 205.025,-90.9111"/>
<polygon fill="none" stroke="midnightblue" points="182.895,-116.976 180.123,-127.202 188.667,-120.937 182.895,-116.976"/>
</g>
</g>
</svg>
