<?xml version="1.0" encoding="UTF-8" standalone="no"?>
<!DOCTYPE svg PUBLIC "-//W3C//DTD SVG 1.1//EN"
 "http://www.w3.org/Graphics/SVG/1.1/DTD/svg11.dtd">
<!-- Generated by graphviz version 2.38.0 (20140413.2041)
 -->
<!-- Title: hi_inheritance_et_al.bb_overrideVsHiding.Person Pages: 1 -->
<svg width="141pt" height="226pt"
 viewBox="0.00 0.00 141.00 226.00" xmlns="http://www.w3.org/2000/svg" xmlns:xlink="http://www.w3.org/1999/xlink">
<g id="graph0" class="graph" transform="scale(1 1) rotate(0) translate(4 222)">
<title>hi_inheritance_et_al.bb_overrideVsHiding.Person</title>
<!-- Node1 -->
<g id="node1" class="node"><title>Node1</title>
<polygon fill="#bfbfbf" stroke="black" points="0,-127.5 0,-217.5 133,-217.5 133,-127.5 0,-127.5"/>
<text text-anchor="start" x="8" y="-205.5" font-family="Helvetica,sans-Serif" font-size="10.00">hi_inheritance_et_al.bb</text>
<text text-anchor="middle" x="66.5" y="-194.5" font-family="Helvetica,sans-Serif" font-size="10.00">_overrideVsHiding.Person</text>
<polyline fill="none" stroke="black" points="0,-187.5 133,-187.5 "/>
<text text-anchor="middle" x="66.5" y="-175.5" font-family="Helvetica,sans-Serif" font-size="10.00"> </text>
<polyline fill="none" stroke="black" points="0,-168.5 133,-168.5 "/>
<text text-anchor="start" x="8" y="-156.5" font-family="Helvetica,sans-Serif" font-size="10.00">~ getAge()</text>
<text text-anchor="start" x="8" y="-145.5" font-family="Helvetica,sans-Serif" font-size="10.00">~ setAge()</text>
<text text-anchor="start" x="8" y="-134.5" font-family="Helvetica,sans-Serif" font-size="10.00">~ aMethod()</text>
</g>
<!-- Node2 -->
<g id="node2" class="node"><title>Node2</title>
<g id="a_node2"><a xlink:href="../../d9/d26/classhi__inheritance__et__al_1_1bb__override_vs_hiding_1_1_adult.html" target="_top" xlink:title="{hi_inheritance_et_al.bb\l_overrideVsHiding.Adult\n||+ setEmployer()\l~ getEmployer()\l~ aMethod()\l}">
<polygon fill="none" stroke="black" points="4.5,-0.5 4.5,-90.5 128.5,-90.5 128.5,-0.5 4.5,-0.5"/>
<text text-anchor="start" x="12.5" y="-78.5" font-family="Helvetica,sans-Serif" font-size="10.00">hi_inheritance_et_al.bb</text>
<text text-anchor="middle" x="66.5" y="-67.5" font-family="Helvetica,sans-Serif" font-size="10.00">_overrideVsHiding.Adult</text>
<polyline fill="none" stroke="black" points="4.5,-60.5 128.5,-60.5 "/>
<text text-anchor="middle" x="66.5" y="-48.5" font-family="Helvetica,sans-Serif" font-size="10.00"> </text>
<polyline fill="none" stroke="black" points="4.5,-41.5 128.5,-41.5 "/>
<text text-anchor="start" x="12.5" y="-29.5" font-family="Helvetica,sans-Serif" font-size="10.00">+ setEmployer()</text>
<text text-anchor="start" x="12.5" y="-18.5" font-family="Helvetica,sans-Serif" font-size="10.00">~ getEmployer()</text>
<text text-anchor="start" x="12.5" y="-7.5" font-family="Helvetica,sans-Serif" font-size="10.00">~ aMethod()</text>
</a>
</g>
</g>
<!-- Node1&#45;&gt;Node2 -->
<g id="edge1" class="edge"><title>Node1&#45;&gt;Node2</title>
<path fill="none" stroke="midnightblue" d="M66.5,-117.157C66.5,-108.282 66.5,-99.1831 66.5,-90.5937"/>
<polygon fill="none" stroke="midnightblue" points="63.0001,-117.43 66.5,-127.43 70.0001,-117.43 63.0001,-117.43"/>
</g>
</g>
</svg>
