<?xml version="1.0" encoding="UTF-8" standalone="no"?>
<!DOCTYPE svg PUBLIC "-//W3C//DTD SVG 1.1//EN"
 "http://www.w3.org/Graphics/SVG/1.1/DTD/svg11.dtd">
<!-- Generated by graphviz version 2.38.0 (20140413.2041)
 -->
<!-- Title: hi_inheritance_et_al.dd_composition.MobileI Pages: 1 -->
<svg width="302pt" height="215pt"
 viewBox="0.00 0.00 301.50 215.00" xmlns="http://www.w3.org/2000/svg" xmlns:xlink="http://www.w3.org/1999/xlink">
<g id="graph0" class="graph" transform="scale(1 1) rotate(0) translate(4 211)">
<title>hi_inheritance_et_al.dd_composition.MobileI</title>
<!-- Node1 -->
<g id="node1" class="node"><title>Node1</title>
<polygon fill="#bfbfbf" stroke="black" points="78,-138.5 78,-206.5 198,-206.5 198,-138.5 78,-138.5"/>
<text text-anchor="start" x="86" y="-194.5" font-family="Helvetica,sans-Serif" font-size="10.00">hi_inheritance_et_al.dd</text>
<text text-anchor="middle" x="138" y="-183.5" font-family="Helvetica,sans-Serif" font-size="10.00">_composition.MobileI</text>
<polyline fill="none" stroke="black" points="78,-176.5 198,-176.5 "/>
<text text-anchor="middle" x="138" y="-164.5" font-family="Helvetica,sans-Serif" font-size="10.00"> </text>
<polyline fill="none" stroke="black" points="78,-157.5 198,-157.5 "/>
<text text-anchor="start" x="86" y="-145.5" font-family="Helvetica,sans-Serif" font-size="10.00">+ move()</text>
</g>
<!-- Node2 -->
<g id="node2" class="node"><title>Node2</title>
<g id="a_node2"><a xlink:href="../../d9/d20/classhi__inheritance__et__al_1_1dd__composition_1_1_car.html" target="_top" xlink:title="{hi_inheritance_et_al.dd\l_composition.Car\n||+ move()\l}">
<polygon fill="none" stroke="black" points="0,-17 0,-85 120,-85 120,-17 0,-17"/>
<text text-anchor="start" x="8" y="-73" font-family="Helvetica,sans-Serif" font-size="10.00">hi_inheritance_et_al.dd</text>
<text text-anchor="middle" x="60" y="-62" font-family="Helvetica,sans-Serif" font-size="10.00">_composition.Car</text>
<polyline fill="none" stroke="black" points="0,-55 120,-55 "/>
<text text-anchor="middle" x="60" y="-43" font-family="Helvetica,sans-Serif" font-size="10.00"> </text>
<polyline fill="none" stroke="black" points="0,-36 120,-36 "/>
<text text-anchor="start" x="8" y="-24" font-family="Helvetica,sans-Serif" font-size="10.00">+ move()</text>
</a>
</g>
</g>
<!-- Node1&#45;&gt;Node2 -->
<g id="edge1" class="edge"><title>Node1&#45;&gt;Node2</title>
<path fill="none" stroke="midnightblue" d="M110.788,-129.81C101.235,-115.175 90.6411,-98.9437 81.6108,-85.1089"/>
<polygon fill="none" stroke="midnightblue" points="107.876,-131.752 116.273,-138.213 113.738,-127.925 107.876,-131.752"/>
</g>
<!-- Node3 -->
<g id="node3" class="node"><title>Node3</title>
<g id="a_node3"><a xlink:href="../../d0/d4a/classhi__inheritance__et__al_1_1dd__composition_1_1_driver_vehicle_unit.html" target="_top" xlink:title="{hi_inheritance_et_al.dd\l_composition.DriverVehicleUnit\n|~ personDelegate\l~ carDelegate\l|+ move()\l+ getAge()\l~ DriverVehicleUnit()\l}">
<polygon fill="none" stroke="black" points="138.5,-0.5 138.5,-101.5 293.5,-101.5 293.5,-0.5 138.5,-0.5"/>
<text text-anchor="start" x="146.5" y="-89.5" font-family="Helvetica,sans-Serif" font-size="10.00">hi_inheritance_et_al.dd</text>
<text text-anchor="middle" x="216" y="-78.5" font-family="Helvetica,sans-Serif" font-size="10.00">_composition.DriverVehicleUnit</text>
<polyline fill="none" stroke="black" points="138.5,-71.5 293.5,-71.5 "/>
<text text-anchor="start" x="146.5" y="-59.5" font-family="Helvetica,sans-Serif" font-size="10.00">~ personDelegate</text>
<text text-anchor="start" x="146.5" y="-48.5" font-family="Helvetica,sans-Serif" font-size="10.00">~ carDelegate</text>
<polyline fill="none" stroke="black" points="138.5,-41.5 293.5,-41.5 "/>
<text text-anchor="start" x="146.5" y="-29.5" font-family="Helvetica,sans-Serif" font-size="10.00">+ move()</text>
<text text-anchor="start" x="146.5" y="-18.5" font-family="Helvetica,sans-Serif" font-size="10.00">+ getAge()</text>
<text text-anchor="start" x="146.5" y="-7.5" font-family="Helvetica,sans-Serif" font-size="10.00">~ DriverVehicleUnit()</text>
</a>
</g>
</g>
<!-- Node1&#45;&gt;Node3 -->
<g id="edge2" class="edge"><title>Node1&#45;&gt;Node3</title>
<path fill="none" stroke="midnightblue" d="M165.261,-129.735C171.181,-120.665 177.499,-110.986 183.595,-101.646"/>
<polygon fill="none" stroke="midnightblue" points="162.262,-127.925 159.727,-138.213 168.124,-131.752 162.262,-127.925"/>
</g>
</g>
</svg>
