<?xml version="1.0" encoding="UTF-8" standalone="no"?>
<!DOCTYPE svg PUBLIC "-//W3C//DTD SVG 1.1//EN"
 "http://www.w3.org/Graphics/SVG/1.1/DTD/svg11.dtd">
<!-- Generated by graphviz version 2.38.0 (20140413.2041)
 -->
<!-- Title: cc_klassen.ll_interfaceDemo.MobilePersonI Pages: 1 -->
<svg width="320pt" height="309pt"
 viewBox="0.00 0.00 320.00 309.00" xmlns="http://www.w3.org/2000/svg" xmlns:xlink="http://www.w3.org/1999/xlink">
<g id="graph0" class="graph" transform="scale(1 1) rotate(0) translate(4 305)">
<title>cc_klassen.ll_interfaceDemo.MobilePersonI</title>
<!-- Node1 -->
<g id="node1" class="node"><title>Node1</title>
<polygon fill="#bfbfbf" stroke="black" points="82,-127.5 82,-195.5 229,-195.5 229,-127.5 82,-127.5"/>
<text text-anchor="start" x="90" y="-183.5" font-family="Helvetica,sans-Serif" font-size="10.00">cc_klassen.ll_interfaceDemo.</text>
<text text-anchor="middle" x="155.5" y="-172.5" font-family="Helvetica,sans-Serif" font-size="10.00">MobilePersonI</text>
<polyline fill="none" stroke="black" points="82,-165.5 229,-165.5 "/>
<text text-anchor="middle" x="155.5" y="-153.5" font-family="Helvetica,sans-Serif" font-size="10.00"> </text>
<polyline fill="none" stroke="black" points="82,-146.5 229,-146.5 "/>
<text text-anchor="middle" x="155.5" y="-134.5" font-family="Helvetica,sans-Serif" font-size="10.00"> </text>
</g>
<!-- Node4 -->
<g id="node4" class="node"><title>Node4</title>
<g id="a_node4"><a xlink:href="../../d1/d1c/classcc__klassen_1_1ll__interface_demo_1_1_person_impl1.html" target="_top" xlink:title="{cc_klassen.ll_interfaceDemo.\lPersonImpl1\n||+ getAge()\l+ move()\l~ PersonImpl1()\l}">
<polygon fill="none" stroke="black" points="82,-0.5 82,-90.5 229,-90.5 229,-0.5 82,-0.5"/>
<text text-anchor="start" x="90" y="-78.5" font-family="Helvetica,sans-Serif" font-size="10.00">cc_klassen.ll_interfaceDemo.</text>
<text text-anchor="middle" x="155.5" y="-67.5" font-family="Helvetica,sans-Serif" font-size="10.00">PersonImpl1</text>
<polyline fill="none" stroke="black" points="82,-60.5 229,-60.5 "/>
<text text-anchor="middle" x="155.5" y="-48.5" font-family="Helvetica,sans-Serif" font-size="10.00"> </text>
<polyline fill="none" stroke="black" points="82,-41.5 229,-41.5 "/>
<text text-anchor="start" x="90" y="-29.5" font-family="Helvetica,sans-Serif" font-size="10.00">+ getAge()</text>
<text text-anchor="start" x="90" y="-18.5" font-family="Helvetica,sans-Serif" font-size="10.00">+ move()</text>
<text text-anchor="start" x="90" y="-7.5" font-family="Helvetica,sans-Serif" font-size="10.00">~ PersonImpl1()</text>
</a>
</g>
</g>
<!-- Node1&#45;&gt;Node4 -->
<g id="edge3" class="edge"><title>Node1&#45;&gt;Node4</title>
<path fill="none" stroke="midnightblue" d="M155.5,-116.972C155.5,-108.346 155.5,-99.2838 155.5,-90.6378"/>
<polygon fill="none" stroke="midnightblue" points="152,-117.22 155.5,-127.22 159,-117.22 152,-117.22"/>
</g>
<!-- Node2 -->
<g id="node2" class="node"><title>Node2</title>
<g id="a_node2"><a xlink:href="../../d2/d6d/interfacecc__klassen_1_1ll__interface_demo_1_1_person_i.html" target="_top" xlink:title="{cc_klassen.ll_interfaceDemo.\lPersonI\n|+ DRIVING_AGE\l|+ getAge()\l}">
<polygon fill="none" stroke="black" points="0,-232.5 0,-300.5 147,-300.5 147,-232.5 0,-232.5"/>
<text text-anchor="start" x="8" y="-288.5" font-family="Helvetica,sans-Serif" font-size="10.00">cc_klassen.ll_interfaceDemo.</text>
<text text-anchor="middle" x="73.5" y="-277.5" font-family="Helvetica,sans-Serif" font-size="10.00">PersonI</text>
<polyline fill="none" stroke="black" points="0,-270.5 147,-270.5 "/>
<text text-anchor="start" x="8" y="-258.5" font-family="Helvetica,sans-Serif" font-size="10.00">+ DRIVING_AGE</text>
<polyline fill="none" stroke="black" points="0,-251.5 147,-251.5 "/>
<text text-anchor="start" x="8" y="-239.5" font-family="Helvetica,sans-Serif" font-size="10.00">+ getAge()</text>
</a>
</g>
</g>
<!-- Node2&#45;&gt;Node1 -->
<g id="edge1" class="edge"><title>Node2&#45;&gt;Node1</title>
<path fill="none" stroke="midnightblue" d="M106.185,-224.445C113.812,-214.864 121.841,-204.78 129.153,-195.595"/>
<polygon fill="none" stroke="midnightblue" points="103.387,-222.34 99.8967,-232.343 108.863,-226.7 103.387,-222.34"/>
</g>
<!-- Node3 -->
<g id="node3" class="node"><title>Node3</title>
<g id="a_node3"><a xlink:href="../../dc/d4d/interfacecc__klassen_1_1ll__interface_demo_1_1_mobile_i.html" target="_top" xlink:title="{cc_klassen.ll_interfaceDemo.\lMobileI\n||+ move()\l}">
<polygon fill="none" stroke="black" points="165,-232.5 165,-300.5 312,-300.5 312,-232.5 165,-232.5"/>
<text text-anchor="start" x="173" y="-288.5" font-family="Helvetica,sans-Serif" font-size="10.00">cc_klassen.ll_interfaceDemo.</text>
<text text-anchor="middle" x="238.5" y="-277.5" font-family="Helvetica,sans-Serif" font-size="10.00">MobileI</text>
<polyline fill="none" stroke="black" points="165,-270.5 312,-270.5 "/>
<text text-anchor="middle" x="238.5" y="-258.5" font-family="Helvetica,sans-Serif" font-size="10.00"> </text>
<polyline fill="none" stroke="black" points="165,-251.5 312,-251.5 "/>
<text text-anchor="start" x="173" y="-239.5" font-family="Helvetica,sans-Serif" font-size="10.00">+ move()</text>
</a>
</g>
</g>
<!-- Node3&#45;&gt;Node1 -->
<g id="edge2" class="edge"><title>Node3&#45;&gt;Node1</title>
<path fill="none" stroke="midnightblue" d="M205.416,-224.445C197.696,-214.864 189.57,-204.78 182.169,-195.595"/>
<polygon fill="none" stroke="midnightblue" points="202.782,-226.753 211.781,-232.343 208.232,-222.361 202.782,-226.753"/>
</g>
</g>
</svg>
