<?xml version="1.0" encoding="UTF-8" standalone="no"?>
<!DOCTYPE svg PUBLIC "-//W3C//DTD SVG 1.1//EN"
 "http://www.w3.org/Graphics/SVG/1.1/DTD/svg11.dtd">
<!-- Generated by graphviz version 2.38.0 (20140413.2041)
 -->
<!-- Title: hh_generics.ee_subTypesWildCards.Adult Pages: 1 -->
<svg width="161pt" height="215pt"
 viewBox="0.00 0.00 161.00 215.00" xmlns="http://www.w3.org/2000/svg" xmlns:xlink="http://www.w3.org/1999/xlink">
<g id="graph0" class="graph" transform="scale(1 1) rotate(0) translate(4 211)">
<title>hh_generics.ee_subTypesWildCards.Adult</title>
<!-- Node1 -->
<g id="node1" class="node"><title>Node1</title>
<polygon fill="#bfbfbf" stroke="black" points="0,-0.5 0,-79.5 153,-79.5 153,-0.5 0,-0.5"/>
<text text-anchor="start" x="8" y="-67.5" font-family="Helvetica,sans-Serif" font-size="10.00">hh_generics.ee_subTypesWild</text>
<text text-anchor="middle" x="76.5" y="-56.5" font-family="Helvetica,sans-Serif" font-size="10.00">Cards.Adult</text>
<polyline fill="none" stroke="black" points="0,-49.5 153,-49.5 "/>
<text text-anchor="middle" x="76.5" y="-37.5" font-family="Helvetica,sans-Serif" font-size="10.00"> </text>
<polyline fill="none" stroke="black" points="0,-30.5 153,-30.5 "/>
<text text-anchor="start" x="8" y="-18.5" font-family="Helvetica,sans-Serif" font-size="10.00">+ setEmployer()</text>
<text text-anchor="start" x="8" y="-7.5" font-family="Helvetica,sans-Serif" font-size="10.00">+ getEmployer()</text>
</g>
<!-- Node2 -->
<g id="node2" class="node"><title>Node2</title>
<g id="a_node2"><a xlink:href="../../dc/d80/classhh__generics_1_1ee__sub_types_wild_cards_1_1_person.html" target="_top" xlink:title="{hh_generics.ee_subTypesWild\lCards.Person\n||+ setName()\l+ getName()\l+ update()\l}">
<polygon fill="none" stroke="black" points="0,-116.5 0,-206.5 153,-206.5 153,-116.5 0,-116.5"/>
<text text-anchor="start" x="8" y="-194.5" font-family="Helvetica,sans-Serif" font-size="10.00">hh_generics.ee_subTypesWild</text>
<text text-anchor="middle" x="76.5" y="-183.5" font-family="Helvetica,sans-Serif" font-size="10.00">Cards.Person</text>
<polyline fill="none" stroke="black" points="0,-176.5 153,-176.5 "/>
<text text-anchor="middle" x="76.5" y="-164.5" font-family="Helvetica,sans-Serif" font-size="10.00"> </text>
<polyline fill="none" stroke="black" points="0,-157.5 153,-157.5 "/>
<text text-anchor="start" x="8" y="-145.5" font-family="Helvetica,sans-Serif" font-size="10.00">+ setName()</text>
<text text-anchor="start" x="8" y="-134.5" font-family="Helvetica,sans-Serif" font-size="10.00">+ getName()</text>
<text text-anchor="start" x="8" y="-123.5" font-family="Helvetica,sans-Serif" font-size="10.00">+ update()</text>
</a>
</g>
</g>
<!-- Node2&#45;&gt;Node1 -->
<g id="edge1" class="edge"><title>Node2&#45;&gt;Node1</title>
<path fill="none" stroke="midnightblue" d="M76.5,-106.079C76.5,-97.234 76.5,-88.2325 76.5,-79.8576"/>
<polygon fill="none" stroke="midnightblue" points="73.0001,-106.342 76.5,-116.342 80.0001,-106.342 73.0001,-106.342"/>
</g>
</g>
</svg>
