<?xml version="1.0" encoding="UTF-8" standalone="no"?>
<!DOCTYPE svg PUBLIC "-//W3C//DTD SVG 1.1//EN"
 "http://www.w3.org/Graphics/SVG/1.1/DTD/svg11.dtd">
<!-- Generated by graphviz version 2.38.0 (20140413.2041)
 -->
<!-- Title: ff_collections.bb_ListWithPolymorphismAndCastAndInterface.Person Pages: 1 -->
<svg width="382pt" height="226pt"
 viewBox="0.00 0.00 382.00 226.00" xmlns="http://www.w3.org/2000/svg" xmlns:xlink="http://www.w3.org/1999/xlink">
<g id="graph0" class="graph" transform="scale(1 1) rotate(0) translate(4 222)">
<title>ff_collections.bb_ListWithPolymorphismAndCastAndInterface.Person</title>
<!-- Node1 -->
<g id="node1" class="node"><title>Node1</title>
<polygon fill="#bfbfbf" stroke="black" points="98,-0.5 98,-101.5 276,-101.5 276,-0.5 98,-0.5"/>
<text text-anchor="start" x="106" y="-89.5" font-family="Helvetica,sans-Serif" font-size="10.00">ff_collections.bb_ListWith</text>
<text text-anchor="start" x="106" y="-78.5" font-family="Helvetica,sans-Serif" font-size="10.00">PolymorphismAndCastAndInterface.</text>
<text text-anchor="middle" x="187" y="-67.5" font-family="Helvetica,sans-Serif" font-size="10.00">Person</text>
<polyline fill="none" stroke="black" points="98,-60.5 276,-60.5 "/>
<text text-anchor="middle" x="187" y="-48.5" font-family="Helvetica,sans-Serif" font-size="10.00"> </text>
<polyline fill="none" stroke="black" points="98,-41.5 276,-41.5 "/>
<text text-anchor="start" x="106" y="-29.5" font-family="Helvetica,sans-Serif" font-size="10.00">+ getId()</text>
<text text-anchor="start" x="106" y="-18.5" font-family="Helvetica,sans-Serif" font-size="10.00">+ Person()</text>
<text text-anchor="start" x="106" y="-7.5" font-family="Helvetica,sans-Serif" font-size="10.00">+ talk()</text>
</g>
<!-- Node2 -->
<g id="node2" class="node"><title>Node2</title>
<g id="a_node2"><a xlink:href="../../d0/df8/interfaceff__collections_1_1bb___list_with_polymorphism_and_cast_and_interface_1_1_agent_i.html" target="_top" xlink:title="{ff_collections.bb_ListWith\lPolymorphismAndCastAndInterface.\lAgentI\n||+ getId()\l}">
<polygon fill="none" stroke="black" points="0,-138.5 0,-217.5 178,-217.5 178,-138.5 0,-138.5"/>
<text text-anchor="start" x="8" y="-205.5" font-family="Helvetica,sans-Serif" font-size="10.00">ff_collections.bb_ListWith</text>
<text text-anchor="start" x="8" y="-194.5" font-family="Helvetica,sans-Serif" font-size="10.00">PolymorphismAndCastAndInterface.</text>
<text text-anchor="middle" x="89" y="-183.5" font-family="Helvetica,sans-Serif" font-size="10.00">AgentI</text>
<polyline fill="none" stroke="black" points="0,-176.5 178,-176.5 "/>
<text text-anchor="middle" x="89" y="-164.5" font-family="Helvetica,sans-Serif" font-size="10.00"> </text>
<polyline fill="none" stroke="black" points="0,-157.5 178,-157.5 "/>
<text text-anchor="start" x="8" y="-145.5" font-family="Helvetica,sans-Serif" font-size="10.00">+ getId()</text>
</a>
</g>
</g>
<!-- Node2&#45;&gt;Node1 -->
<g id="edge1" class="edge"><title>Node2&#45;&gt;Node1</title>
<path fill="none" stroke="midnightblue" d="M125.535,-130.4C132.878,-121.034 140.621,-111.157 148.042,-101.691"/>
<polygon fill="none" stroke="midnightblue" points="122.618,-128.447 119.203,-138.476 128.127,-132.766 122.618,-128.447"/>
</g>
<!-- Node3 -->
<g id="node3" class="node"><title>Node3</title>
<g id="a_node3"><a xlink:href="../../d7/db6/interfaceff__collections_1_1bb___list_with_polymorphism_and_cast_and_interface_1_1_can_talk_i.html" target="_top" xlink:title="{ff_collections.bb_ListWith\lPolymorphismAndCastAndInterface.\lCanTalkI\n||+ talk()\l}">
<polygon fill="none" stroke="black" points="196,-138.5 196,-217.5 374,-217.5 374,-138.5 196,-138.5"/>
<text text-anchor="start" x="204" y="-205.5" font-family="Helvetica,sans-Serif" font-size="10.00">ff_collections.bb_ListWith</text>
<text text-anchor="start" x="204" y="-194.5" font-family="Helvetica,sans-Serif" font-size="10.00">PolymorphismAndCastAndInterface.</text>
<text text-anchor="middle" x="285" y="-183.5" font-family="Helvetica,sans-Serif" font-size="10.00">CanTalkI</text>
<polyline fill="none" stroke="black" points="196,-176.5 374,-176.5 "/>
<text text-anchor="middle" x="285" y="-164.5" font-family="Helvetica,sans-Serif" font-size="10.00"> </text>
<polyline fill="none" stroke="black" points="196,-157.5 374,-157.5 "/>
<text text-anchor="start" x="204" y="-145.5" font-family="Helvetica,sans-Serif" font-size="10.00">+ talk()</text>
</a>
</g>
</g>
<!-- Node3&#45;&gt;Node1 -->
<g id="edge2" class="edge"><title>Node3&#45;&gt;Node1</title>
<path fill="none" stroke="midnightblue" d="M248.465,-130.4C241.122,-121.034 233.379,-111.157 225.958,-101.691"/>
<polygon fill="none" stroke="midnightblue" points="245.873,-132.766 254.797,-138.476 251.382,-128.447 245.873,-132.766"/>
</g>
</g>
</svg>
