<?xml version="1.0" encoding="UTF-8" standalone="no"?>
<!DOCTYPE svg PUBLIC "-//W3C//DTD SVG 1.1//EN"
 "http://www.w3.org/Graphics/SVG/1.1/DTD/svg11.dtd">
<!-- Generated by graphviz version 2.38.0 (20140413.2041)
 -->
<!-- Title: kk_xml.cc_saxExample.zz_archive.MyParser Pages: 1 -->
<svg width="141pt" height="259pt"
 viewBox="0.00 0.00 141.00 259.00" xmlns="http://www.w3.org/2000/svg" xmlns:xlink="http://www.w3.org/1999/xlink">
<g id="graph0" class="graph" transform="scale(1 1) rotate(0) translate(4 255)">
<title>kk_xml.cc_saxExample.zz_archive.MyParser</title>
<!-- Node1 -->
<g id="node1" class="node"><title>Node1</title>
<polygon fill="#bfbfbf" stroke="black" points="0,-0.5 0,-156.5 133,-156.5 133,-0.5 0,-0.5"/>
<text text-anchor="start" x="8" y="-144.5" font-family="Helvetica,sans-Serif" font-size="10.00">kk_xml.cc_saxExample.zz</text>
<text text-anchor="middle" x="66.5" y="-133.5" font-family="Helvetica,sans-Serif" font-size="10.00">_archive.MyParser</text>
<polyline fill="none" stroke="black" points="0,-126.5 133,-126.5 "/>
<text text-anchor="start" x="8" y="-114.5" font-family="Helvetica,sans-Serif" font-size="10.00">~ locator_</text>
<text text-anchor="start" x="8" y="-103.5" font-family="Helvetica,sans-Serif" font-size="10.00">~ indentLevel_</text>
<text text-anchor="start" x="8" y="-92.5" font-family="Helvetica,sans-Serif" font-size="10.00">~ indentString</text>
<text text-anchor="start" x="8" y="-81.5" font-family="Helvetica,sans-Serif" font-size="10.00">~ iAmInRoute_</text>
<polyline fill="none" stroke="black" points="0,-74.5 133,-74.5 "/>
<text text-anchor="start" x="8" y="-62.5" font-family="Helvetica,sans-Serif" font-size="10.00">+ startDocument()</text>
<text text-anchor="start" x="8" y="-51.5" font-family="Helvetica,sans-Serif" font-size="10.00">+ endDocument()</text>
<text text-anchor="start" x="8" y="-40.5" font-family="Helvetica,sans-Serif" font-size="10.00">+ startElement()</text>
<text text-anchor="start" x="8" y="-29.5" font-family="Helvetica,sans-Serif" font-size="10.00">+ endElement()</text>
<text text-anchor="start" x="8" y="-18.5" font-family="Helvetica,sans-Serif" font-size="10.00">+ characters()</text>
<text text-anchor="start" x="8" y="-7.5" font-family="Helvetica,sans-Serif" font-size="10.00">+ setDocumentLocator()</text>
</g>
<!-- Node2 -->
<g id="node2" class="node"><title>Node2</title>
<polygon fill="none" stroke="#bfbfbf" points="25,-193.5 25,-250.5 108,-250.5 108,-193.5 25,-193.5"/>
<text text-anchor="middle" x="66.5" y="-238.5" font-family="Helvetica,sans-Serif" font-size="10.00">DefaultHandler</text>
<polyline fill="none" stroke="#bfbfbf" points="25,-231.5 108,-231.5 "/>
<text text-anchor="middle" x="66.5" y="-219.5" font-family="Helvetica,sans-Serif" font-size="10.00"> </text>
<polyline fill="none" stroke="#bfbfbf" points="25,-212.5 108,-212.5 "/>
<text text-anchor="middle" x="66.5" y="-200.5" font-family="Helvetica,sans-Serif" font-size="10.00"> </text>
</g>
<!-- Node2&#45;&gt;Node1 -->
<g id="edge1" class="edge"><title>Node2&#45;&gt;Node1</title>
<path fill="none" stroke="midnightblue" d="M66.5,-183.34C66.5,-175.044 66.5,-165.964 66.5,-156.736"/>
<polygon fill="none" stroke="midnightblue" points="63.0001,-183.381 66.5,-193.381 70.0001,-183.382 63.0001,-183.381"/>
</g>
</g>
</svg>
