<?xml version="1.0" encoding="UTF-8" standalone="no"?>
<!DOCTYPE svg PUBLIC "-//W3C//DTD SVG 1.1//EN"
 "http://www.w3.org/Graphics/SVG/1.1/DTD/svg11.dtd">
<!-- Generated by graphviz version 2.38.0 (20140413.2041)
 -->
<!-- Title: ff_collections.bb_ListWithPolymorphismAndCast.Person Pages: 1 -->
<svg width="161pt" height="204pt"
 viewBox="0.00 0.00 161.00 204.00" xmlns="http://www.w3.org/2000/svg" xmlns:xlink="http://www.w3.org/1999/xlink">
<g id="graph0" class="graph" transform="scale(1 1) rotate(0) translate(4 200)">
<title>ff_collections.bb_ListWithPolymorphismAndCast.Person</title>
<!-- Node1 -->
<g id="node1" class="node"><title>Node1</title>
<polygon fill="#bfbfbf" stroke="black" points="0,-0.5 0,-90.5 153,-90.5 153,-0.5 0,-0.5"/>
<text text-anchor="start" x="8" y="-78.5" font-family="Helvetica,sans-Serif" font-size="10.00">ff_collections.bb_ListWith</text>
<text text-anchor="middle" x="76.5" y="-67.5" font-family="Helvetica,sans-Serif" font-size="10.00">PolymorphismAndCast.Person</text>
<polyline fill="none" stroke="black" points="0,-60.5 153,-60.5 "/>
<text text-anchor="middle" x="76.5" y="-48.5" font-family="Helvetica,sans-Serif" font-size="10.00"> </text>
<polyline fill="none" stroke="black" points="0,-41.5 153,-41.5 "/>
<text text-anchor="start" x="8" y="-29.5" font-family="Helvetica,sans-Serif" font-size="10.00">+ getId()</text>
<text text-anchor="start" x="8" y="-18.5" font-family="Helvetica,sans-Serif" font-size="10.00">+ Person()</text>
<text text-anchor="start" x="8" y="-7.5" font-family="Helvetica,sans-Serif" font-size="10.00">+ talk()</text>
</g>
<!-- Node2 -->
<g id="node2" class="node"><title>Node2</title>
<g id="a_node2"><a xlink:href="../../d0/d4f/interfaceff__collections_1_1bb___list_with_polymorphism_and_cast_1_1_agent_i.html" target="_top" xlink:title="{ff_collections.bb_ListWith\lPolymorphismAndCast.AgentI\n||+ getId()\l}">
<polygon fill="none" stroke="black" points="1.5,-127.5 1.5,-195.5 151.5,-195.5 151.5,-127.5 1.5,-127.5"/>
<text text-anchor="start" x="9.5" y="-183.5" font-family="Helvetica,sans-Serif" font-size="10.00">ff_collections.bb_ListWith</text>
<text text-anchor="middle" x="76.5" y="-172.5" font-family="Helvetica,sans-Serif" font-size="10.00">PolymorphismAndCast.AgentI</text>
<polyline fill="none" stroke="black" points="1.5,-165.5 151.5,-165.5 "/>
<text text-anchor="middle" x="76.5" y="-153.5" font-family="Helvetica,sans-Serif" font-size="10.00"> </text>
<polyline fill="none" stroke="black" points="1.5,-146.5 151.5,-146.5 "/>
<text text-anchor="start" x="9.5" y="-134.5" font-family="Helvetica,sans-Serif" font-size="10.00">+ getId()</text>
</a>
</g>
</g>
<!-- Node2&#45;&gt;Node1 -->
<g id="edge1" class="edge"><title>Node2&#45;&gt;Node1</title>
<path fill="none" stroke="midnightblue" d="M76.5,-116.972C76.5,-108.346 76.5,-99.2838 76.5,-90.6378"/>
<polygon fill="none" stroke="midnightblue" points="73.0001,-117.22 76.5,-127.22 80.0001,-117.22 73.0001,-117.22"/>
</g>
</g>
</svg>
