<?xml version="1.0" encoding="UTF-8" standalone="no"?>
<!DOCTYPE svg PUBLIC "-//W3C//DTD SVG 1.1//EN"
 "http://www.w3.org/Graphics/SVG/1.1/DTD/svg11.dtd">
<!-- Generated by graphviz version 2.38.0 (20140413.2041)
 -->
<!-- Title: hi_inheritance_et_al.dd_composition.DriverVehicleUnit Pages: 1 -->
<svg width="266pt" height="215pt"
 viewBox="0.00 0.00 266.00 215.00" xmlns="http://www.w3.org/2000/svg" xmlns:xlink="http://www.w3.org/1999/xlink">
<g id="graph0" class="graph" transform="scale(1 1) rotate(0) translate(4 211)">
<title>hi_inheritance_et_al.dd_composition.DriverVehicleUnit</title>
<!-- Node1 -->
<g id="node1" class="node"><title>Node1</title>
<polygon fill="#bfbfbf" stroke="black" points="51.5,-0.5 51.5,-101.5 206.5,-101.5 206.5,-0.5 51.5,-0.5"/>
<text text-anchor="start" x="59.5" y="-89.5" font-family="Helvetica,sans-Serif" font-size="10.00">hi_inheritance_et_al.dd</text>
<text text-anchor="middle" x="129" y="-78.5" font-family="Helvetica,sans-Serif" font-size="10.00">_composition.DriverVehicleUnit</text>
<polyline fill="none" stroke="black" points="51.5,-71.5 206.5,-71.5 "/>
<text text-anchor="start" x="59.5" y="-59.5" font-family="Helvetica,sans-Serif" font-size="10.00">~ personDelegate</text>
<text text-anchor="start" x="59.5" y="-48.5" font-family="Helvetica,sans-Serif" font-size="10.00">~ carDelegate</text>
<polyline fill="none" stroke="black" points="51.5,-41.5 206.5,-41.5 "/>
<text text-anchor="start" x="59.5" y="-29.5" font-family="Helvetica,sans-Serif" font-size="10.00">+ move()</text>
<text text-anchor="start" x="59.5" y="-18.5" font-family="Helvetica,sans-Serif" font-size="10.00">+ getAge()</text>
<text text-anchor="start" x="59.5" y="-7.5" font-family="Helvetica,sans-Serif" font-size="10.00">~ DriverVehicleUnit()</text>
</g>
<!-- Node2 -->
<g id="node2" class="node"><title>Node2</title>
<g id="a_node2"><a xlink:href="../../df/deb/interfacehi__inheritance__et__al_1_1dd__composition_1_1_mobile_i.html" target="_top" xlink:title="{hi_inheritance_et_al.dd\l_composition.MobileI\n||+ move()\l}">
<polygon fill="none" stroke="black" points="0,-138.5 0,-206.5 120,-206.5 120,-138.5 0,-138.5"/>
<text text-anchor="start" x="8" y="-194.5" font-family="Helvetica,sans-Serif" font-size="10.00">hi_inheritance_et_al.dd</text>
<text text-anchor="middle" x="60" y="-183.5" font-family="Helvetica,sans-Serif" font-size="10.00">_composition.MobileI</text>
<polyline fill="none" stroke="black" points="0,-176.5 120,-176.5 "/>
<text text-anchor="middle" x="60" y="-164.5" font-family="Helvetica,sans-Serif" font-size="10.00"> </text>
<polyline fill="none" stroke="black" points="0,-157.5 120,-157.5 "/>
<text text-anchor="start" x="8" y="-145.5" font-family="Helvetica,sans-Serif" font-size="10.00">+ move()</text>
</a>
</g>
</g>
<!-- Node2&#45;&gt;Node1 -->
<g id="edge1" class="edge"><title>Node2&#45;&gt;Node1</title>
<path fill="none" stroke="midnightblue" d="M84.2775,-129.454C89.4675,-120.466 94.9967,-110.89 100.334,-101.646"/>
<polygon fill="none" stroke="midnightblue" points="81.1897,-127.802 79.2203,-138.213 87.2518,-131.303 81.1897,-127.802"/>
</g>
<!-- Node3 -->
<g id="node3" class="node"><title>Node3</title>
<g id="a_node3"><a xlink:href="../../d9/d96/interfacehi__inheritance__et__al_1_1dd__composition_1_1_person_i.html" target="_top" xlink:title="{hi_inheritance_et_al.dd\l_composition.PersonI\n||+ getAge()\l}">
<polygon fill="none" stroke="black" points="138,-138.5 138,-206.5 258,-206.5 258,-138.5 138,-138.5"/>
<text text-anchor="start" x="146" y="-194.5" font-family="Helvetica,sans-Serif" font-size="10.00">hi_inheritance_et_al.dd</text>
<text text-anchor="middle" x="198" y="-183.5" font-family="Helvetica,sans-Serif" font-size="10.00">_composition.PersonI</text>
<polyline fill="none" stroke="black" points="138,-176.5 258,-176.5 "/>
<text text-anchor="middle" x="198" y="-164.5" font-family="Helvetica,sans-Serif" font-size="10.00"> </text>
<polyline fill="none" stroke="black" points="138,-157.5 258,-157.5 "/>
<text text-anchor="start" x="146" y="-145.5" font-family="Helvetica,sans-Serif" font-size="10.00">+ getAge()</text>
</a>
</g>
</g>
<!-- Node3&#45;&gt;Node1 -->
<g id="edge2" class="edge"><title>Node3&#45;&gt;Node1</title>
<path fill="none" stroke="midnightblue" d="M173.722,-129.454C168.533,-120.466 163.003,-110.89 157.666,-101.646"/>
<polygon fill="none" stroke="midnightblue" points="170.748,-131.303 178.78,-138.213 176.81,-127.802 170.748,-131.303"/>
</g>
</g>
</svg>
