<?xml version="1.0" encoding="UTF-8" standalone="no"?>
<!DOCTYPE svg PUBLIC "-//W3C//DTD SVG 1.1//EN"
 "http://www.w3.org/Graphics/SVG/1.1/DTD/svg11.dtd">
<!-- Generated by graphviz version 2.38.0 (20140413.2041)
 -->
<!-- Title: ff_collections.bb_ListWithPolymorphismAndCastAndInterface.CanTalkI Pages: 1 -->
<svg width="186pt" height="226pt"
 viewBox="0.00 0.00 186.00 226.00" xmlns="http://www.w3.org/2000/svg" xmlns:xlink="http://www.w3.org/1999/xlink">
<g id="graph0" class="graph" transform="scale(1 1) rotate(0) translate(4 222)">
<title>ff_collections.bb_ListWithPolymorphismAndCastAndInterface.CanTalkI</title>
<!-- Node1 -->
<g id="node1" class="node"><title>Node1</title>
<polygon fill="#bfbfbf" stroke="black" points="0,-138.5 0,-217.5 178,-217.5 178,-138.5 0,-138.5"/>
<text text-anchor="start" x="8" y="-205.5" font-family="Helvetica,sans-Serif" font-size="10.00">ff_collections.bb_ListWith</text>
<text text-anchor="start" x="8" y="-194.5" font-family="Helvetica,sans-Serif" font-size="10.00">PolymorphismAndCastAndInterface.</text>
<text text-anchor="middle" x="89" y="-183.5" font-family="Helvetica,sans-Serif" font-size="10.00">CanTalkI</text>
<polyline fill="none" stroke="black" points="0,-176.5 178,-176.5 "/>
<text text-anchor="middle" x="89" y="-164.5" font-family="Helvetica,sans-Serif" font-size="10.00"> </text>
<polyline fill="none" stroke="black" points="0,-157.5 178,-157.5 "/>
<text text-anchor="start" x="8" y="-145.5" font-family="Helvetica,sans-Serif" font-size="10.00">+ talk()</text>
</g>
<!-- Node2 -->
<g id="node2" class="node"><title>Node2</title>
<g id="a_node2"><a xlink:href="../../d8/da7/classff__collections_1_1bb___list_with_polymorphism_and_cast_and_interface_1_1_person.html" target="_top" xlink:title="{ff_collections.bb_ListWith\lPolymorphismAndCastAndInterface.\lPerson\n||+ getId()\l+ Person()\l+ talk()\l}">
<polygon fill="none" stroke="black" points="0,-0.5 0,-101.5 178,-101.5 178,-0.5 0,-0.5"/>
<text text-anchor="start" x="8" y="-89.5" font-family="Helvetica,sans-Serif" font-size="10.00">ff_collections.bb_ListWith</text>
<text text-anchor="start" x="8" y="-78.5" font-family="Helvetica,sans-Serif" font-size="10.00">PolymorphismAndCastAndInterface.</text>
<text text-anchor="middle" x="89" y="-67.5" font-family="Helvetica,sans-Serif" font-size="10.00">Person</text>
<polyline fill="none" stroke="black" points="0,-60.5 178,-60.5 "/>
<text text-anchor="middle" x="89" y="-48.5" font-family="Helvetica,sans-Serif" font-size="10.00"> </text>
<polyline fill="none" stroke="black" points="0,-41.5 178,-41.5 "/>
<text text-anchor="start" x="8" y="-29.5" font-family="Helvetica,sans-Serif" font-size="10.00">+ getId()</text>
<text text-anchor="start" x="8" y="-18.5" font-family="Helvetica,sans-Serif" font-size="10.00">+ Person()</text>
<text text-anchor="start" x="8" y="-7.5" font-family="Helvetica,sans-Serif" font-size="10.00">+ talk()</text>
</a>
</g>
</g>
<!-- Node1&#45;&gt;Node2 -->
<g id="edge1" class="edge"><title>Node1&#45;&gt;Node2</title>
<path fill="none" stroke="midnightblue" d="M89,-128.406C89,-119.639 89,-110.488 89,-101.691"/>
<polygon fill="none" stroke="midnightblue" points="85.5001,-128.476 89,-138.476 92.5001,-128.476 85.5001,-128.476"/>
</g>
</g>
</svg>
