<?xml version="1.0" encoding="UTF-8" standalone="no"?>
<!DOCTYPE svg PUBLIC "-//W3C//DTD SVG 1.1//EN"
 "http://www.w3.org/Graphics/SVG/1.1/DTD/svg11.dtd">
<!-- Generated by graphviz version 2.38.0 (20140413.2041)
 -->
<!-- Title: ff_collections.bb_ListWithPolymorphism.Dog Pages: 1 -->
<svg width="137pt" height="204pt"
 viewBox="0.00 0.00 137.00 204.00" xmlns="http://www.w3.org/2000/svg" xmlns:xlink="http://www.w3.org/1999/xlink">
<g id="graph0" class="graph" transform="scale(1 1) rotate(0) translate(4 200)">
<title>ff_collections.bb_ListWithPolymorphism.Dog</title>
<!-- Node1 -->
<g id="node1" class="node"><title>Node1</title>
<polygon fill="#bfbfbf" stroke="black" points="0,-0.5 0,-90.5 129,-90.5 129,-0.5 0,-0.5"/>
<text text-anchor="start" x="8" y="-78.5" font-family="Helvetica,sans-Serif" font-size="10.00">ff_collections.bb_ListWith</text>
<text text-anchor="middle" x="64.5" y="-67.5" font-family="Helvetica,sans-Serif" font-size="10.00">Polymorphism.Dog</text>
<polyline fill="none" stroke="black" points="0,-60.5 129,-60.5 "/>
<text text-anchor="middle" x="64.5" y="-48.5" font-family="Helvetica,sans-Serif" font-size="10.00"> </text>
<polyline fill="none" stroke="black" points="0,-41.5 129,-41.5 "/>
<text text-anchor="start" x="8" y="-29.5" font-family="Helvetica,sans-Serif" font-size="10.00">+ getId()</text>
<text text-anchor="start" x="8" y="-18.5" font-family="Helvetica,sans-Serif" font-size="10.00">+ Dog()</text>
<text text-anchor="start" x="8" y="-7.5" font-family="Helvetica,sans-Serif" font-size="10.00">+ bark()</text>
</g>
<!-- Node2 -->
<g id="node2" class="node"><title>Node2</title>
<g id="a_node2"><a xlink:href="../../d6/dc1/interfaceff__collections_1_1bb___list_with_polymorphism_1_1_agent_i.html" target="_top" xlink:title="{ff_collections.bb_ListWith\lPolymorphism.AgentI\n||+ getId()\l}">
<polygon fill="none" stroke="black" points="0,-127.5 0,-195.5 129,-195.5 129,-127.5 0,-127.5"/>
<text text-anchor="start" x="8" y="-183.5" font-family="Helvetica,sans-Serif" font-size="10.00">ff_collections.bb_ListWith</text>
<text text-anchor="middle" x="64.5" y="-172.5" font-family="Helvetica,sans-Serif" font-size="10.00">Polymorphism.AgentI</text>
<polyline fill="none" stroke="black" points="0,-165.5 129,-165.5 "/>
<text text-anchor="middle" x="64.5" y="-153.5" font-family="Helvetica,sans-Serif" font-size="10.00"> </text>
<polyline fill="none" stroke="black" points="0,-146.5 129,-146.5 "/>
<text text-anchor="start" x="8" y="-134.5" font-family="Helvetica,sans-Serif" font-size="10.00">+ getId()</text>
</a>
</g>
</g>
<!-- Node2&#45;&gt;Node1 -->
<g id="edge1" class="edge"><title>Node2&#45;&gt;Node1</title>
<path fill="none" stroke="midnightblue" d="M64.5,-116.972C64.5,-108.346 64.5,-99.2838 64.5,-90.6378"/>
<polygon fill="none" stroke="midnightblue" points="61.0001,-117.22 64.5,-127.22 68.0001,-117.22 61.0001,-117.22"/>
</g>
</g>
</svg>
